<svg aria-labelledby="chart-title-mermaid-svg chart-desc-mermaid-svg" role="img" viewBox="0 0 650.8932495117188 1553" style="max-width: 650.8932495117188px;" xmlns="http://www.w3.org/2000/svg" width="100%" id="mermaid-svg"><title id="chart-title-mermaid-svg"></title><desc id="chart-desc-mermaid-svg"></desc><style>#mermaid-svg {font-family:"trebuchet ms",verdana,arial,sans-serif;font-size:16px;fill:#333;}#mermaid-svg .error-icon{fill:#552222;}#mermaid-svg .error-text{fill:#552222;stroke:#552222;}#mermaid-svg .edge-thickness-normal{stroke-width:2px;}#mermaid-svg .edge-thickness-thick{stroke-width:3.5px;}#mermaid-svg .edge-pattern-solid{stroke-dasharray:0;}#mermaid-svg .edge-pattern-dashed{stroke-dasharray:3;}#mermaid-svg .edge-pattern-dotted{stroke-dasharray:2;}#mermaid-svg .marker{fill:#333333;stroke:#333333;}#mermaid-svg .marker.cross{stroke:#333333;}#mermaid-svg svg{font-family:"trebuchet ms",verdana,arial,sans-serif;font-size:16px;}#mermaid-svg .entityBox{fill:#ECECFF;stroke:#9370DB;}#mermaid-svg .attributeBoxOdd{fill:#ffffff;stroke:#9370DB;}#mermaid-svg .attributeBoxEven{fill:#f2f2f2;stroke:#9370DB;}#mermaid-svg .relationshipLabelBox{fill:hsl(80, 100%, 96.2745098039%);opacity:0.7;background-color:hsl(80, 100%, 96.2745098039%);}#mermaid-svg .relationshipLabelBox rect{opacity:0.5;}#mermaid-svg .relationshipLine{stroke:#333333;}#mermaid-svg :root{--mermaid-font-family:"trebuchet ms",verdana,arial,sans-serif;}</style><g></g><defs><marker orient="auto" markerHeight="18" markerWidth="18" refY="9" refX="0" id="ONLY_ONE_START"><path d="M9,0 L9,18 M15,0 L15,18" fill="none" stroke="gray"></path></marker></defs><defs><marker orient="auto" markerHeight="18" markerWidth="18" refY="9" refX="18" id="ONLY_ONE_END"><path d="M3,0 L3,18 M9,0 L9,18" fill="none" stroke="gray"></path></marker></defs><defs><marker orient="auto" markerHeight="18" markerWidth="30" refY="9" refX="0" id="ZERO_OR_ONE_START"><circle r="6" cy="9" cx="21" fill="white" stroke="gray"></circle><path d="M9,0 L9,18" fill="none" stroke="gray"></path></marker></defs><defs><marker orient="auto" markerHeight="18" markerWidth="30" refY="9" refX="30" id="ZERO_OR_ONE_END"><circle r="6" cy="9" cx="9" fill="white" stroke="gray"></circle><path d="M21,0 L21,18" fill="none" stroke="gray"></path></marker></defs><defs><marker orient="auto" markerHeight="36" markerWidth="45" refY="18" refX="18" id="ONE_OR_MORE_START"><path d="M0,18 Q 18,0 36,18 Q 18,36 0,18 M42,9 L42,27" fill="none" stroke="gray"></path></marker></defs><defs><marker orient="auto" markerHeight="36" markerWidth="45" refY="18" refX="27" id="ONE_OR_MORE_END"><path d="M3,9 L3,27 M9,18 Q27,0 45,18 Q27,36 9,18" fill="none" stroke="gray"></path></marker></defs><defs><marker orient="auto" markerHeight="36" markerWidth="57" refY="18" refX="18" id="ZERO_OR_MORE_START"><circle r="6" cy="18" cx="48" fill="white" stroke="gray"></circle><path d="M0,18 Q18,0 36,18 Q18,36 0,18" fill="none" stroke="gray"></path></marker></defs><defs><marker orient="auto" markerHeight="36" markerWidth="57" refY="18" refX="39" id="ZERO_OR_MORE_END"><circle r="6" cy="18" cx="9" fill="white" stroke="gray"></circle><path d="M21,18 Q39,0 57,18 Q39,36 21,18" fill="none" stroke="gray"></path></marker></defs><path marker-start="url(#ONE_OR_MORE_START)" marker-end="url(#ONE_OR_MORE_END)" stroke-dasharray="8,8" fill="none" stroke="gray" d="M99.19252232142857,95L94.43061755952381,103.33333333333333C89.66871279761904,111.66666666666667,80.14490327380952,128.33333333333334,75.38299851190476,145C70.62109375,161.66666666666666,70.62109375,178.33333333333334,70.62109375,186.66666666666666L70.62109375,195" class="er relationshipLine"></path><path marker-start="url(#ONLY_ONE_START)" marker-end="url(#ZERO_OR_ONE_END)" fill="none" stroke="gray" d="M170.62109375,86.66666666666667L187.28776041666666,96.3888888888889C203.95442708333334,106.11111111111113,237.28776041666666,125.55555555555556,253.95442708333334,143.61111111111111C270.62109375,161.66666666666666,270.62109375,178.33333333333334,270.62109375,186.66666666666666L270.62109375,195" class="er relationshipLine"></path><path marker-start="url(#ONLY_ONE_START)" marker-end="url(#ONE_OR_MORE_END)" fill="none" stroke="gray" d="M316.0704149518694,270L326.1702641078404,278.3333333333333C336.27011326381137,286.6666666666667,356.46981157575334,303.3333333333333,366.56966073172435,320C376.6695098876953,336.6666666666667,376.6695098876953,353.3333333333333,376.6695098876953,361.6666666666667L376.6695098876953,370" class="er relationshipLine"></path><path marker-start="url(#ZERO_OR_MORE_START)" marker-end="url(#ONLY_ONE_END)" stroke-dasharray="8,8" fill="none" stroke="gray" d="M220.62109375,254.35237937291475L195.58658854166666,265.29364947742897C170.55208333333334,276.2349195819432,120.48307291666667,298.1174597909716,95.44856770833333,323.64206322881915C70.4140625,349.1666666666667,70.4140625,378.3333333333333,70.4140625,407.5C70.4140625,436.6666666666667,70.4140625,465.8333333333333,70.4140625,494.4166666666667C70.4140625,523,70.4140625,551,70.4140625,579C70.4140625,607,70.4140625,635,70.4140625,666.6666666666666C70.4140625,698.3333333333334,70.4140625,733.6666666666666,70.4140625,769C70.4140625,804.3333333333334,70.4140625,839.6666666666666,70.4140625,873.1666666666666C70.4140625,906.6666666666666,70.4140625,938.3333333333334,70.4140625,970C70.4140625,1001.6666666666666,70.4140625,1033.3333333333333,70.4140625,1063.75C70.4140625,1094.1666666666667,70.4140625,1123.3333333333333,70.4140625,1152.5C70.4140625,1181.6666666666667,70.4140625,1210.8333333333333,70.4140625,1233.75C70.4140625,1256.6666666666667,70.4140625,1273.3333333333333,70.4140625,1281.6666666666667L70.4140625,1290" class="er relationshipLine"></path><path marker-start="url(#ONLY_ONE_START)" marker-end="url(#ONLY_ONE_END)" stroke-dasharray="8,8" fill="none" stroke="gray" d="M70.4140625,1358L70.4140625,1366.3333333333333C70.4140625,1374.6666666666667,70.4140625,1391.3333333333333,95.44856770833333,1410.607936771181C120.48307291666667,1429.8825402090285,170.55208333333334,1451.7650804180569,195.58658854166666,1462.7063505225708L220.62109375,1473.6476206270852" class="er relationshipLine"></path><path marker-start="url(#ZERO_OR_MORE_START)" marker-end="url(#ONLY_ONE_END)" stroke-dasharray="8,8" fill="none" stroke="gray" d="M355.50713161252577,825L359.8292525909232,833.3333333333334C364.1513735693206,841.6666666666666,372.7956155261154,858.3333333333334,395.13034916523867,876.5201218745265C417.465082804362,894.7069104157196,453.4903081258138,914.4138208314394,471.50292078653973,924.2672760392992L489.5155334472656,934.120731247159" class="er relationshipLine"></path><path marker-start="url(#ZERO_OR_MORE_START)" marker-end="url(#ONLY_ONE_END)" stroke-dasharray="8,8" fill="none" stroke="gray" d="M270.54627530079966,825L262.22541170899973,833.3333333333334C253.90454811719977,841.6666666666666,237.26282093359987,858.3333333333334,228.94195734179993,882.5C220.62109375,906.6666666666666,220.62109375,938.3333333333334,220.62109375,970C220.62109375,1001.6666666666666,220.62109375,1033.3333333333333,220.62109375,1063.75C220.62109375,1094.1666666666667,220.62109375,1123.3333333333333,220.62109375,1152.5C220.62109375,1181.6666666666667,220.62109375,1210.8333333333333,244.34530893961588,1235.7773781982066C268.06952412923175,1260.72142306308,315.51795450846356,1281.4428461261598,339.2421696980794,1291.8035576576997L362.9663848876953,1302.1642691892398" class="er relationshipLine"></path><path marker-start="url(#ONLY_ONE_START)" marker-end="url(#ZERO_OR_MORE_END)" fill="none" stroke="gray" d="M249.19252232142858,270L244.43061755952382,278.3333333333333C239.66871279761904,286.6666666666667,230.14490327380952,303.3333333333333,225.3829985119048,326.25C220.62109375,349.1666666666667,220.62109375,378.3333333333333,220.62109375,407.5C220.62109375,436.6666666666667,220.62109375,465.8333333333333,220.62109375,494.4166666666667C220.62109375,523,220.62109375,551,220.62109375,579C220.62109375,607,220.62109375,635,228.94195734179993,657.3333333333334C237.26282093359987,679.6666666666666,253.90454811719977,696.3333333333334,262.22541170899973,704.6666666666666L270.54627530079966,713" class="er relationshipLine"></path><path marker-start="url(#ONLY_ONE_START)" marker-end="url(#ZERO_OR_MORE_END)" fill="none" stroke="gray" d="M376.6695098876953,445L376.6695098876953,453.3333333333333C376.6695098876953,461.6666666666667,376.6695098876953,478.3333333333333,376.6695098876953,495C376.6695098876953,511.6666666666667,376.6695098876953,528.3333333333334,376.6695098876953,536.6666666666666L376.6695098876953,545" class="er relationshipLine"></path><path marker-start="url(#ZERO_OR_MORE_START)" marker-end="url(#ONLY_ONE_END)" fill="none" stroke="gray" d="M376.6695098876953,613L376.6695098876953,621.3333333333334C376.6695098876953,629.6666666666666,376.6695098876953,646.3333333333334,372.72241623596574,663C368.77532258423616,679.6666666666666,360.8811352807771,696.3333333333334,356.9340416290475,704.6666666666666L352.986947977318,713" class="er relationshipLine"></path><path marker-start="url(#ONLY_ONE_START)" marker-end="url(#ONE_OR_MORE_END)" fill="none" stroke="gray" d="M555.1046447753906,814L555.1046447753906,824.1666666666666C555.1046447753906,834.3333333333334,555.1046447753906,854.6666666666666,555.1046447753906,873.1666666666666C555.1046447753906,891.6666666666666,555.1046447753906,908.3333333333334,555.1046447753906,916.6666666666666L555.1046447753906,925" class="er relationshipLine"></path><path marker-start="url(#ONLY_ONE_START)" marker-end="url(#ONE_OR_MORE_END)" stroke-dasharray="8,8" fill="none" stroke="gray" d="M564.1206255461041,1015L565.7902516147547,1023.3333333333334C567.4598776834054,1031.6666666666667,570.7991298207065,1048.3333333333333,572.4687558893571,1065C574.1383819580078,1081.6666666666667,574.1383819580078,1098.3333333333333,574.1383819580078,1106.6666666666667L574.1383819580078,1115" class="er relationshipLine"></path><path marker-start="url(#ONLY_ONE_START)" marker-end="url(#ONE_OR_MORE_END)" stroke-dasharray="8,8" fill="none" stroke="gray" d="M489.5155334472656,1000.9256741845587L466.8667246500651,1011.6047284871323C444.21791585286456,1022.2837827897059,398.92029825846356,1043.641891394853,376.271489461263,1068.9042790307597C353.6226806640625,1094.1666666666667,353.6226806640625,1123.3333333333333,353.6226806640625,1152.5C353.6226806640625,1181.6666666666667,353.6226806640625,1210.8333333333333,359.5099529084705,1233.75C365.3972251528785,1256.6666666666667,377.17176964169454,1273.3333333333333,383.05904188610253,1281.6666666666667L388.9463141305106,1290" class="er relationshipLine"></path><path marker-start="url(#ONLY_ONE_START)" marker-end="url(#ONE_OR_MORE_END)" fill="none" stroke="gray" d="M574.1383819580078,1190L574.1383819580078,1198.3333333333333C574.1383819580078,1206.6666666666667,574.1383819580078,1223.3333333333333,555.6097157796224,1241.323480426351C537.0810496012369,1259.3136275193683,500.0237172444661,1278.6272550387368,481.49505106608075,1288.284068798421L462.9663848876953,1297.9408825581052" class="er relationshipLine"></path><path marker-start="url(#ONLY_ONE_START)" marker-end="url(#ONLY_ONE_END)" stroke-dasharray="8,8" fill="none" stroke="gray" d="M412.9663848876953,1358L412.9663848876953,1366.3333333333333C412.9663848876953,1374.6666666666667,412.9663848876953,1391.3333333333333,397.5755030314128,1409.1274795369852C382.1846211751302,1426.9216257406367,351.4028574625651,1445.8432514812732,336.01197560628253,1455.3040643515917L320.62109375,1464.7648772219102" class="er relationshipLine"></path><g transform="translate(70.62109375,20 )" id="Account"><rect height="75" width="100" y="0" x="0" stroke="gray" fill-opacity="100%" fill="honeydew" class="er entityBox"></rect><text transform="translate(50,37.5)" style="font-family: &quot;trebuchet ms&quot;, verdana, arial, sans-serif;; font-size: 12px" text-anchor="middle" dominant-baseline="middle" y="0" x="0" id="entity-Account" class="er entityLabel">Account</text></g><g transform="translate(20.62109375,195 )" id="Role"><rect height="75" width="100" y="0" x="0" stroke="gray" fill-opacity="100%" fill="honeydew" class="er entityBox"></rect><text transform="translate(50,37.5)" style="font-family: &quot;trebuchet ms&quot;, verdana, arial, sans-serif;; font-size: 12px" text-anchor="middle" dominant-baseline="middle" y="0" x="0" id="entity-Role" class="er entityLabel">Role</text></g><g transform="translate(220.62109375,195 )" id="Client"><rect height="75" width="100" y="0" x="0" stroke="gray" fill-opacity="100%" fill="honeydew" class="er entityBox"></rect><text transform="translate(50,37.5)" style="font-family: &quot;trebuchet ms&quot;, verdana, arial, sans-serif;; font-size: 12px" text-anchor="middle" dominant-baseline="middle" y="0" x="0" id="entity-Client" class="er entityLabel">Client</text></g><g transform="translate(323.6060333251953,370 )" id="BillingSettings"><rect height="75" width="106.126953125" y="0" x="0" stroke="gray" fill-opacity="100%" fill="honeydew" class="er entityBox"></rect><text transform="translate(53.0634765625,37.5)" style="font-family: &quot;trebuchet ms&quot;, verdana, arial, sans-serif;; font-size: 12px" text-anchor="middle" dominant-baseline="middle" y="0" x="0" id="entity-BillingSettings" class="er entityLabel">BillingSettings</text></g><g transform="translate(20,1290 )" id="Vehicle"><rect height="68" width="100.828125" y="0" x="0" stroke="gray" fill-opacity="100%" fill="honeydew" class="er entityBox"></rect><text transform="translate(50.4140625,12)" style="font-family: &quot;trebuchet ms&quot;, verdana, arial, sans-serif;; font-size: 12px" text-anchor="middle" dominant-baseline="middle" y="0" x="0" id="entity-Vehicle" class="er entityLabel">Vehicle</text><rect height="22" width="62.65625" y="24" x="0" stroke="gray" fill-opacity="100%" fill="honeydew" class="er attributeBoxOdd"></rect><text transform="translate(5,35)" style="font-family: &quot;trebuchet ms&quot;, verdana, arial, sans-serif;; font-size: 10.2px" text-anchor="left" dominant-baseline="middle" y="0" x="0" id="entity-Vehicle-attr-1-type" class="er entityLabel">string</text><rect height="22" width="38.171875" y="24" x="62.65625" stroke="gray" fill-opacity="100%" fill="honeydew" class="er attributeBoxOdd"></rect><text transform="translate(67.65625,35)" style="font-family: &quot;trebuchet ms&quot;, verdana, arial, sans-serif;; font-size: 10.2px" text-anchor="left" dominant-baseline="middle" y="0" x="0" id="entity-Vehicle-attr-1-name" class="er entityLabel">model</text><rect height="22" width="62.65625" y="46" x="0" stroke="gray" fill-opacity="100%" fill="honeydew" class="er attributeBoxEven"></rect><text transform="translate(5,57)" style="font-family: &quot;trebuchet ms&quot;, verdana, arial, sans-serif;; font-size: 10.2px" text-anchor="left" dominant-baseline="middle" y="0" x="0" id="entity-Vehicle-attr-2-type" class="er entityLabel">VehicleKind</text><rect height="22" width="38.171875" y="46" x="62.65625" stroke="gray" fill-opacity="100%" fill="honeydew" class="er attributeBoxEven"></rect><text transform="translate(67.65625,57)" style="font-family: &quot;trebuchet ms&quot;, verdana, arial, sans-serif;; font-size: 10.2px" text-anchor="left" dominant-baseline="middle" y="0" x="0" id="entity-Vehicle-attr-2-name" class="er entityLabel">kind</text></g><g transform="translate(220.62109375,1458 )" id="PortType"><rect height="75" width="100" y="0" x="0" stroke="gray" fill-opacity="100%" fill="honeydew" class="er entityBox"></rect><text transform="translate(50,37.5)" style="font-family: &quot;trebuchet ms&quot;, verdana, arial, sans-serif;; font-size: 12px" text-anchor="middle" dominant-baseline="middle" y="0" x="0" id="entity-PortType" class="er entityLabel">PortType</text></g><g transform="translate(247.8203125,713 )" id="Rent"><rect height="112" width="157.28433227539062" y="0" x="0" stroke="gray" fill-opacity="100%" fill="honeydew" class="er entityBox"></rect><text transform="translate(78.64216613769531,12)" style="font-family: &quot;trebuchet ms&quot;, verdana, arial, sans-serif;; font-size: 12px" text-anchor="middle" dominant-baseline="middle" y="0" x="0" id="entity-Rent" class="er entityLabel">Rent</text><rect height="22" width="67.64370727539062" y="24" x="0" stroke="gray" fill-opacity="100%" fill="honeydew" class="er attributeBoxOdd"></rect><text transform="translate(5,35)" style="font-family: &quot;trebuchet ms&quot;, verdana, arial, sans-serif;; font-size: 10.2px" text-anchor="left" dominant-baseline="middle" y="0" x="0" id="entity-Rent-attr-1-type" class="er entityLabel">timestamptz</text><rect height="22" width="89.640625" y="24" x="67.64370727539062" stroke="gray" fill-opacity="100%" fill="honeydew" class="er attributeBoxOdd"></rect><text transform="translate(72.64370727539062,35)" style="font-family: &quot;trebuchet ms&quot;, verdana, arial, sans-serif;; font-size: 10.2px" text-anchor="left" dominant-baseline="middle" y="0" x="0" id="entity-Rent-attr-1-name" class="er entityLabel">started</text><rect height="22" width="67.64370727539062" y="46" x="0" stroke="gray" fill-opacity="100%" fill="honeydew" class="er attributeBoxEven"></rect><text transform="translate(5,57)" style="font-family: &quot;trebuchet ms&quot;, verdana, arial, sans-serif;; font-size: 10.2px" text-anchor="left" dominant-baseline="middle" y="0" x="0" id="entity-Rent-attr-2-type" class="er entityLabel">json</text><rect height="22" width="89.640625" y="46" x="67.64370727539062" stroke="gray" fill-opacity="100%" fill="honeydew" class="er attributeBoxEven"></rect><text transform="translate(72.64370727539062,57)" style="font-family: &quot;trebuchet ms&quot;, verdana, arial, sans-serif;; font-size: 10.2px" text-anchor="left" dominant-baseline="middle" y="0" x="0" id="entity-Rent-attr-2-name" class="er entityLabel">freezedCostRates</text><rect height="22" width="67.64370727539062" y="68" x="0" stroke="gray" fill-opacity="100%" fill="honeydew" class="er attributeBoxOdd"></rect><text transform="translate(5,79)" style="font-family: &quot;trebuchet ms&quot;, verdana, arial, sans-serif;; font-size: 10.2px" text-anchor="left" dominant-baseline="middle" y="0" x="0" id="entity-Rent-attr-3-type" class="er entityLabel">timestamptz</text><rect height="22" width="89.640625" y="68" x="67.64370727539062" stroke="gray" fill-opacity="100%" fill="honeydew" class="er attributeBoxOdd"></rect><text transform="translate(72.64370727539062,79)" style="font-family: &quot;trebuchet ms&quot;, verdana, arial, sans-serif;; font-size: 10.2px" text-anchor="left" dominant-baseline="middle" y="0" x="0" id="entity-Rent-attr-3-name" class="er entityLabel">finished</text><rect height="22" width="67.64370727539062" y="90" x="0" stroke="gray" fill-opacity="100%" fill="honeydew" class="er attributeBoxEven"></rect><text transform="translate(5,101)" style="font-family: &quot;trebuchet ms&quot;, verdana, arial, sans-serif;; font-size: 10.2px" text-anchor="left" dominant-baseline="middle" y="0" x="0" id="entity-Rent-attr-4-type" class="er entityLabel">number</text><rect height="22" width="89.640625" y="90" x="67.64370727539062" stroke="gray" fill-opacity="100%" fill="honeydew" class="er attributeBoxEven"></rect><text transform="translate(72.64370727539062,101)" style="font-family: &quot;trebuchet ms&quot;, verdana, arial, sans-serif;; font-size: 10.2px" text-anchor="left" dominant-baseline="middle" y="0" x="0" id="entity-Rent-attr-4-name" class="er entityLabel">totalPrice</text></g><g transform="translate(489.5155334472656,925 )" id="Spot"><rect height="90" width="131.17822265625" y="0" x="0" stroke="gray" fill-opacity="100%" fill="honeydew" class="er entityBox"></rect><text transform="translate(65.589111328125,12)" style="font-family: &quot;trebuchet ms&quot;, verdana, arial, sans-serif;; font-size: 12px" text-anchor="middle" dominant-baseline="middle" y="0" x="0" id="entity-Spot" class="er entityLabel">Spot</text><rect height="22" width="70.140625" y="24" x="0" stroke="gray" fill-opacity="100%" fill="honeydew" class="er attributeBoxOdd"></rect><text transform="translate(5,35)" style="font-family: &quot;trebuchet ms&quot;, verdana, arial, sans-serif;; font-size: 10.2px" text-anchor="left" dominant-baseline="middle" y="0" x="0" id="entity-Spot-attr-1-type" class="er entityLabel">bool</text><rect height="22" width="61.03759765625" y="24" x="70.140625" stroke="gray" fill-opacity="100%" fill="honeydew" class="er attributeBoxOdd"></rect><text transform="translate(75.140625,35)" style="font-family: &quot;trebuchet ms&quot;, verdana, arial, sans-serif;; font-size: 10.2px" text-anchor="left" dominant-baseline="middle" y="0" x="0" id="entity-Spot-attr-1-name" class="er entityLabel">available</text><rect height="22" width="70.140625" y="46" x="0" stroke="gray" fill-opacity="100%" fill="honeydew" class="er attributeBoxEven"></rect><text transform="translate(5,57)" style="font-family: &quot;trebuchet ms&quot;, verdana, arial, sans-serif;; font-size: 10.2px" text-anchor="left" dominant-baseline="middle" y="0" x="0" id="entity-Spot-attr-2-type" class="er entityLabel">VehicleKind[]</text><rect height="22" width="61.03759765625" y="46" x="70.140625" stroke="gray" fill-opacity="100%" fill="honeydew" class="er attributeBoxEven"></rect><text transform="translate(75.140625,57)" style="font-family: &quot;trebuchet ms&quot;, verdana, arial, sans-serif;; font-size: 10.2px" text-anchor="left" dominant-baseline="middle" y="0" x="0" id="entity-Spot-attr-2-name" class="er entityLabel">suitableFor</text><rect height="22" width="70.140625" y="68" x="0" stroke="gray" fill-opacity="100%" fill="honeydew" class="er attributeBoxOdd"></rect><text transform="translate(5,79)" style="font-family: &quot;trebuchet ms&quot;, verdana, arial, sans-serif;; font-size: 10.2px" text-anchor="left" dominant-baseline="middle" y="0" x="0" id="entity-Spot-attr-3-type" class="er entityLabel">number</text><rect height="22" width="61.03759765625" y="68" x="70.140625" stroke="gray" fill-opacity="100%" fill="honeydew" class="er attributeBoxOdd"></rect><text transform="translate(75.140625,79)" style="font-family: &quot;trebuchet ms&quot;, verdana, arial, sans-serif;; font-size: 10.2px" text-anchor="left" dominant-baseline="middle" y="0" x="0" id="entity-Spot-attr-3-name" class="er entityLabel">cost</text></g><g transform="translate(362.9663848876953,1290 )" id="ChargingPort"><rect height="68" width="100" y="0" x="0" stroke="gray" fill-opacity="100%" fill="honeydew" class="er entityBox"></rect><text transform="translate(50,12)" style="font-family: &quot;trebuchet ms&quot;, verdana, arial, sans-serif;; font-size: 12px" text-anchor="middle" dominant-baseline="middle" y="0" x="0" id="entity-ChargingPort" class="er entityLabel">ChargingPort</text><rect height="22" width="46.5924072265625" y="24" x="0" stroke="gray" fill-opacity="100%" fill="honeydew" class="er attributeBoxOdd"></rect><text transform="translate(5,35)" style="font-family: &quot;trebuchet ms&quot;, verdana, arial, sans-serif;; font-size: 10.2px" text-anchor="left" dominant-baseline="middle" y="0" x="0" id="entity-ChargingPort-attr-1-type" class="er entityLabel">bool</text><rect height="22" width="53.4075927734375" y="24" x="46.5924072265625" stroke="gray" fill-opacity="100%" fill="honeydew" class="er attributeBoxOdd"></rect><text transform="translate(51.5924072265625,35)" style="font-family: &quot;trebuchet ms&quot;, verdana, arial, sans-serif;; font-size: 10.2px" text-anchor="left" dominant-baseline="middle" y="0" x="0" id="entity-ChargingPort-attr-1-name" class="er entityLabel">available</text><rect height="22" width="46.5924072265625" y="46" x="0" stroke="gray" fill-opacity="100%" fill="honeydew" class="er attributeBoxEven"></rect><text transform="translate(5,57)" style="font-family: &quot;trebuchet ms&quot;, verdana, arial, sans-serif;; font-size: 10.2px" text-anchor="left" dominant-baseline="middle" y="0" x="0" id="entity-ChargingPort-attr-2-type" class="er entityLabel">number</text><rect height="22" width="53.4075927734375" y="46" x="46.5924072265625" stroke="gray" fill-opacity="100%" fill="honeydew" class="er attributeBoxEven"></rect><text transform="translate(51.5924072265625,57)" style="font-family: &quot;trebuchet ms&quot;, verdana, arial, sans-serif;; font-size: 10.2px" text-anchor="left" dominant-baseline="middle" y="0" x="0" id="entity-ChargingPort-attr-2-name" class="er entityLabel">cost</text></g><g transform="translate(320.62109375,545 )" id="Payment"><rect height="68" width="112.09683227539062" y="0" x="0" stroke="gray" fill-opacity="100%" fill="honeydew" class="er entityBox"></rect><text transform="translate(56.04841613769531,12)" style="font-family: &quot;trebuchet ms&quot;, verdana, arial, sans-serif;; font-size: 12px" text-anchor="middle" dominant-baseline="middle" y="0" x="0" id="entity-Payment" class="er entityLabel">Payment</text><rect height="22" width="67.64370727539062" y="24" x="0" stroke="gray" fill-opacity="100%" fill="honeydew" class="er attributeBoxOdd"></rect><text transform="translate(5,35)" style="font-family: &quot;trebuchet ms&quot;, verdana, arial, sans-serif;; font-size: 10.2px" text-anchor="left" dominant-baseline="middle" y="0" x="0" id="entity-Payment-attr-1-type" class="er entityLabel">number</text><rect height="22" width="44.453125" y="24" x="67.64370727539062" stroke="gray" fill-opacity="100%" fill="honeydew" class="er attributeBoxOdd"></rect><text transform="translate(72.64370727539062,35)" style="font-family: &quot;trebuchet ms&quot;, verdana, arial, sans-serif;; font-size: 10.2px" text-anchor="left" dominant-baseline="middle" y="0" x="0" id="entity-Payment-attr-1-name" class="er entityLabel">amount</text><rect height="22" width="67.64370727539062" y="46" x="0" stroke="gray" fill-opacity="100%" fill="honeydew" class="er attributeBoxEven"></rect><text transform="translate(5,57)" style="font-family: &quot;trebuchet ms&quot;, verdana, arial, sans-serif;; font-size: 10.2px" text-anchor="left" dominant-baseline="middle" y="0" x="0" id="entity-Payment-attr-2-type" class="er entityLabel">timestamptz</text><rect height="22" width="44.453125" y="46" x="67.64370727539062" stroke="gray" fill-opacity="100%" fill="honeydew" class="er attributeBoxEven"></rect><text transform="translate(72.64370727539062,57)" style="font-family: &quot;trebuchet ms&quot;, verdana, arial, sans-serif;; font-size: 10.2px" text-anchor="left" dominant-baseline="middle" y="0" x="0" id="entity-Payment-attr-2-name" class="er entityLabel">when</text></g><g transform="translate(505.1046447753906,724 )" id="Parking"><rect height="90" width="100" y="0" x="0" stroke="gray" fill-opacity="100%" fill="honeydew" class="er entityBox"></rect><text transform="translate(50,12)" style="font-family: &quot;trebuchet ms&quot;, verdana, arial, sans-serif;; font-size: 12px" text-anchor="middle" dominant-baseline="middle" y="0" x="0" id="entity-Parking" class="er entityLabel">Parking</text><rect height="22" width="44.4296875" y="24" x="0" stroke="gray" fill-opacity="100%" fill="honeydew" class="er attributeBoxOdd"></rect><text transform="translate(5,35)" style="font-family: &quot;trebuchet ms&quot;, verdana, arial, sans-serif;; font-size: 10.2px" text-anchor="left" dominant-baseline="middle" y="0" x="0" id="entity-Parking-attr-1-type" class="er entityLabel">string</text><rect height="22" width="55.5703125" y="24" x="44.4296875" stroke="gray" fill-opacity="100%" fill="honeydew" class="er attributeBoxOdd"></rect><text transform="translate(49.4296875,35)" style="font-family: &quot;trebuchet ms&quot;, verdana, arial, sans-serif;; font-size: 10.2px" text-anchor="left" dominant-baseline="middle" y="0" x="0" id="entity-Parking-attr-1-name" class="er entityLabel">name</text><rect height="22" width="44.4296875" y="46" x="0" stroke="gray" fill-opacity="100%" fill="honeydew" class="er attributeBoxEven"></rect><text transform="translate(5,57)" style="font-family: &quot;trebuchet ms&quot;, verdana, arial, sans-serif;; font-size: 10.2px" text-anchor="left" dominant-baseline="middle" y="0" x="0" id="entity-Parking-attr-2-type" class="er entityLabel">json</text><rect height="22" width="55.5703125" y="46" x="44.4296875" stroke="gray" fill-opacity="100%" fill="honeydew" class="er attributeBoxEven"></rect><text transform="translate(49.4296875,57)" style="font-family: &quot;trebuchet ms&quot;, verdana, arial, sans-serif;; font-size: 10.2px" text-anchor="left" dominant-baseline="middle" y="0" x="0" id="entity-Parking-attr-2-name" class="er entityLabel">address</text><rect height="22" width="44.4296875" y="68" x="0" stroke="gray" fill-opacity="100%" fill="honeydew" class="er attributeBoxOdd"></rect><text transform="translate(5,79)" style="font-family: &quot;trebuchet ms&quot;, verdana, arial, sans-serif;; font-size: 10.2px" text-anchor="left" dominant-baseline="middle" y="0" x="0" id="entity-Parking-attr-3-type" class="er entityLabel">json</text><rect height="22" width="55.5703125" y="68" x="44.4296875" stroke="gray" fill-opacity="100%" fill="honeydew" class="er attributeBoxOdd"></rect><text transform="translate(49.4296875,79)" style="font-family: &quot;trebuchet ms&quot;, verdana, arial, sans-serif;; font-size: 10.2px" text-anchor="left" dominant-baseline="middle" y="0" x="0" id="entity-Parking-attr-3-name" class="er entityLabel">location</text></g><g transform="translate(517.3834991455078,1115 )" id="ElectricCharger"><rect height="75" width="113.509765625" y="0" x="0" stroke="gray" fill-opacity="100%" fill="honeydew" class="er entityBox"></rect><text transform="translate(56.7548828125,37.5)" style="font-family: &quot;trebuchet ms&quot;, verdana, arial, sans-serif;; font-size: 12px" text-anchor="middle" dominant-baseline="middle" y="0" x="0" id="entity-ElectricCharger" class="er entityLabel">ElectricCharger</text></g><rect fill-opacity="85%" fill="white" height="14" width="66.59375" y="135.55276489257812" x="42.81890869140625" class="er relationshipLabelBox"></rect><text style="font-family: &quot;trebuchet ms&quot;, verdana, arial, sans-serif;; font-size: 12px" dominant-baseline="middle" text-anchor="middle" y="142.55276489257812" x="76.11578369140625" id="rel1" class="er relationshipLabel">has assigned</text><rect fill-opacity="85%" fill="white" height="14" width="69.49609375" y="121.52340698242188" x="202.22793579101562" class="er relationshipLabelBox"></rect><text style="font-family: &quot;trebuchet ms&quot;, verdana, arial, sans-serif;; font-size: 12px" dominant-baseline="middle" text-anchor="middle" y="128.52340698242188" x="236.97598266601562" id="rel2" class="er relationshipLabel">might be the</text><rect fill-opacity="85%" fill="white" height="14" width="17.861328125" y="304.9675598144531" x="352.0459289550781" class="er relationshipLabelBox"></rect><text style="font-family: &quot;trebuchet ms&quot;, verdana, arial, sans-serif;; font-size: 12px" dominant-baseline="middle" text-anchor="middle" y="311.9675598144531" x="360.9765930175781" id="rel3" class="er relationshipLabel">has</text><rect fill-opacity="85%" fill="white" height="14" width="88.54296875" y="724.7128295898438" x="26.142578125" class="er relationshipLabelBox"></rect><text style="font-family: &quot;trebuchet ms&quot;, verdana, arial, sans-serif;; font-size: 12px" dominant-baseline="middle" text-anchor="middle" y="731.7128295898438" x="70.4140625" id="rel4" class="er relationshipLabel">owns a model of</text><rect fill-opacity="85%" fill="white" height="14" width="23.671875" y="1424.3641357421875" x="117.21760559082031" class="er relationshipLabelBox"></rect><text style="font-family: &quot;trebuchet ms&quot;, verdana, arial, sans-serif;; font-size: 12px" dominant-baseline="middle" text-anchor="middle" y="1431.3641357421875" x="129.0535430908203" id="rel5" class="er relationshipLabel">with</text><rect fill-opacity="85%" fill="white" height="14" width="70.451171875" y="882.8418579101562" x="378.095458984375" class="er relationshipLabelBox"></rect><text style="font-family: &quot;trebuchet ms&quot;, verdana, arial, sans-serif;; font-size: 12px" dominant-baseline="middle" text-anchor="middle" y="889.8418579101562" x="413.321044921875" id="rel6" class="er relationshipLabel">the available</text><rect fill-opacity="85%" fill="white" height="14" width="70.451171875" y="1087.19287109375" x="185.3955078125" class="er relationshipLabelBox"></rect><text style="font-family: &quot;trebuchet ms&quot;, verdana, arial, sans-serif;; font-size: 12px" dominant-baseline="middle" text-anchor="middle" y="1094.19287109375" x="220.62109375" id="rel7" class="er relationshipLabel">the available</text><rect fill-opacity="85%" fill="white" height="14" width="18.8125" y="489.4388427734375" x="211.21484375" class="er relationshipLabelBox"></rect><text style="font-family: &quot;trebuchet ms&quot;, verdana, arial, sans-serif;; font-size: 12px" dominant-baseline="middle" text-anchor="middle" y="496.4388427734375" x="220.62109375" id="rel8" class="er relationshipLabel">can</text><rect fill-opacity="85%" fill="white" height="14" width="84.025390625" y="488" x="334.65679931640625" class="er relationshipLabelBox"></rect><text style="font-family: &quot;trebuchet ms&quot;, verdana, arial, sans-serif;; font-size: 12px" dominant-baseline="middle" text-anchor="middle" y="495" x="376.66949462890625" id="rel9" class="er relationshipLabel">will be used for</text><rect fill-opacity="85%" fill="white" height="14" width="37.46875" y="657.7365112304688" x="353.5622863769531" class="er relationshipLabelBox"></rect><text style="font-family: &quot;trebuchet ms&quot;, verdana, arial, sans-serif;; font-size: 12px" dominant-baseline="middle" text-anchor="middle" y="664.7365112304688" x="372.2966613769531" id="rel10" class="er relationshipLabel">for the</text><rect fill-opacity="85%" fill="white" height="14" width="17.861328125" y="862.5" x="546.1740112304688" class="er relationshipLabelBox"></rect><text style="font-family: &quot;trebuchet ms&quot;, verdana, arial, sans-serif;; font-size: 12px" dominant-baseline="middle" text-anchor="middle" y="869.5" x="555.1046752929688" id="rel11" class="er relationshipLabel">has</text><rect fill-opacity="85%" fill="white" height="14" width="74.875" y="1057.6700439453125" x="534.9971923828125" class="er relationshipLabelBox"></rect><text style="font-family: &quot;trebuchet ms&quot;, verdana, arial, sans-serif;; font-size: 12px" dominant-baseline="middle" text-anchor="middle" y="1064.6700439453125" x="572.4346923828125" id="rel12" class="er relationshipLabel">has reachable</text><rect fill-opacity="85%" fill="white" height="14" width="74.875" y="1107.476318359375" x="318.0925598144531" class="er relationshipLabelBox"></rect><text style="font-family: &quot;trebuchet ms&quot;, verdana, arial, sans-serif;; font-size: 12px" dominant-baseline="middle" text-anchor="middle" y="1114.476318359375" x="355.5300598144531" id="rel13" class="er relationshipLabel">has reachable</text><rect fill-opacity="85%" fill="white" height="14" width="23.671875" y="1250.4578857421875" x="523.268798828125" class="er relationshipLabelBox"></rect><text style="font-family: &quot;trebuchet ms&quot;, verdana, arial, sans-serif;; font-size: 12px" dominant-baseline="middle" text-anchor="middle" y="1257.4578857421875" x="535.104736328125" id="rel14" class="er relationshipLabel">with</text><rect fill-opacity="85%" fill="white" height="14" width="23.333984375" y="1416.038818359375" x="371.3345947265625" class="er relationshipLabelBox"></rect><text style="font-family: &quot;trebuchet ms&quot;, verdana, arial, sans-serif;; font-size: 12px" dominant-baseline="middle" text-anchor="middle" y="1423.038818359375" x="383.0015869140625" id="rel15" class="er relationshipLabel">is of</text><style>@import url("https://cdnjs.cloudflare.com/ajax/libs/font-awesome/5.15.2/css/all.min.css");</style></svg>