<svg aria-roledescription="er" viewBox="0 0 879.828125 1210" style="max-width: 100%;" xmlns="http://www.w3.org/2000/svg" width="100%" id="graph-div" height="100%" xmlns:xlink="http://www.w3.org/1999/xlink"><style>@import url("https://cdnjs.cloudflare.com/ajax/libs/font-awesome/6.2.1/css/all.min.css");'</style><style>#graph-div{font-family:"trebuchet ms",verdana,arial,sans-serif;font-size:16px;fill:#ccc;}#graph-div .error-icon{fill:#a44141;}#graph-div .error-text{fill:#ddd;stroke:#ddd;}#graph-div .edge-thickness-normal{stroke-width:2px;}#graph-div .edge-thickness-thick{stroke-width:3.5px;}#graph-div .edge-pattern-solid{stroke-dasharray:0;}#graph-div .edge-pattern-dashed{stroke-dasharray:3;}#graph-div .edge-pattern-dotted{stroke-dasharray:2;}#graph-div .marker{fill:lightgrey;stroke:lightgrey;}#graph-div .marker.cross{stroke:lightgrey;}#graph-div svg{font-family:"trebuchet ms",verdana,arial,sans-serif;font-size:16px;}#graph-div .entityBox{fill:#1f2020;stroke:#81B1DB;}#graph-div .attributeBoxOdd{fill:hsl(0, 0%, 32%);stroke:#81B1DB;}#graph-div .attributeBoxEven{fill:hsl(0, 0%, 22%);stroke:#81B1DB;}#graph-div .relationshipLabelBox{fill:hsl(20, 1.5873015873%, 12.3529411765%);opacity:0.7;background-color:hsl(20, 1.5873015873%, 12.3529411765%);}#graph-div .relationshipLabelBox rect{opacity:0.5;}#graph-div .relationshipLine{stroke:lightgrey;}#graph-div .entityTitleText{text-anchor:middle;font-size:18px;fill:#ccc;}#graph-div :root{--mermaid-font-family:"trebuchet ms",verdana,arial,sans-serif;}</style><g></g><defs><marker orient="auto" markerHeight="18" markerWidth="18" refY="9" refX="0" id="ONLY_ONE_START"><path d="M9,0 L9,18 M15,0 L15,18" fill="none" stroke="gray"></path></marker></defs><defs><marker orient="auto" markerHeight="18" markerWidth="18" refY="9" refX="18" id="ONLY_ONE_END"><path d="M3,0 L3,18 M9,0 L9,18" fill="none" stroke="gray"></path></marker></defs><defs><marker orient="auto" markerHeight="18" markerWidth="30" refY="9" refX="0" id="ZERO_OR_ONE_START"><circle r="6" cy="9" cx="21" fill="white" stroke="gray"></circle><path d="M9,0 L9,18" fill="none" stroke="gray"></path></marker></defs><defs><marker orient="auto" markerHeight="18" markerWidth="30" refY="9" refX="30" id="ZERO_OR_ONE_END"><circle r="6" cy="9" cx="9" fill="white" stroke="gray"></circle><path d="M21,0 L21,18" fill="none" stroke="gray"></path></marker></defs><defs><marker orient="auto" markerHeight="36" markerWidth="45" refY="18" refX="18" id="ONE_OR_MORE_START"><path d="M0,18 Q 18,0 36,18 Q 18,36 0,18 M42,9 L42,27" fill="none" stroke="gray"></path></marker></defs><defs><marker orient="auto" markerHeight="36" markerWidth="45" refY="18" refX="27" id="ONE_OR_MORE_END"><path d="M3,9 L3,27 M9,18 Q27,0 45,18 Q27,36 9,18" fill="none" stroke="gray"></path></marker></defs><defs><marker orient="auto" markerHeight="36" markerWidth="57" refY="18" refX="18" id="ZERO_OR_MORE_START"><circle r="6" cy="18" cx="48" fill="white" stroke="gray"></circle><path d="M0,18 Q18,0 36,18 Q18,36 0,18" fill="none" stroke="gray"></path></marker></defs><defs><marker orient="auto" markerHeight="36" markerWidth="57" refY="18" refX="39" id="ZERO_OR_MORE_END"><circle r="6" cy="18" cx="9" fill="white" stroke="gray"></circle><path d="M21,18 Q39,0 57,18 Q39,36 21,18" fill="none" stroke="gray"></path></marker></defs><path style="stroke: gray; fill: none;" marker-start="url(#ONE_OR_MORE_START)" marker-end="url(#ONE_OR_MORE_END)" stroke-dasharray="8,8" d="M127.14285714285714,95L117.6190476190476,103.33333333333333C108.09523809523809,111.66666666666667,89.04761904761904,128.33333333333334,79.52380952380952,145C70,161.66666666666666,70,178.33333333333334,70,186.66666666666666L70,195" class="er relationshipLine"></path><path style="stroke: gray; fill: none;" marker-start="url(#ONLY_ONE_START)" marker-end="url(#ZERO_OR_ONE_END)" d="M212.85714285714286,95L222.38095238095238,103.33333333333333C231.90476190476193,111.66666666666667,250.95238095238096,128.33333333333334,260.4761904761905,145C270,161.66666666666666,270,178.33333333333334,270,186.66666666666666L270,195" class="er relationshipLine"></path><path style="stroke: gray; fill: none;" marker-start="url(#ONLY_ONE_START)" marker-end="url(#ONE_OR_MORE_END)" d="M270,270L270,278.3333333333333C270,286.6666666666667,270,303.3333333333333,270,323.0833333333333C270,342.8333333333333,270,365.6666666666667,270,377.0833333333333L270,388.5" class="er relationshipLine"></path><path style="stroke: gray; fill: none;" marker-start="url(#ZERO_OR_MORE_START)" marker-end="url(#ONLY_ONE_END)" stroke-dasharray="8,8" d="M220,260.81572028113465L202.58203125,270.67976690094554C185.1640625,280.54381352075643,150.328125,300.2719067603782,132.91015625,327.8026200468558C115.4921875,355.3333333333333,115.4921875,390.6666666666667,115.4921875,426C115.4921875,461.3333333333333,115.4921875,496.6666666666667,115.4921875,530.1666666666666C115.4921875,563.6666666666666,115.4921875,595.3333333333334,115.4921875,627C115.4921875,658.6666666666666,115.4921875,690.3333333333334,115.4921875,720.75C115.4921875,751.1666666666666,115.4921875,780.3333333333334,115.4921875,809.5C115.4921875,838.6666666666666,115.4921875,867.8333333333334,115.4921875,890.75C115.4921875,913.6666666666666,115.4921875,930.3333333333334,115.4921875,938.6666666666666L115.4921875,947" class="er relationshipLine"></path><path style="stroke: gray; fill: none;" marker-start="url(#ONLY_ONE_START)" marker-end="url(#ONLY_ONE_END)" stroke-dasharray="8,8" d="M115.4921875,1015L115.4921875,1023.3333333333334C115.4921875,1031.6666666666667,115.4921875,1048.3333333333333,156.57421875,1068.7906884315742C197.65625,1089.2480435298148,279.8203125,1113.4960870596294,320.90234375,1125.6201088245368L361.984375,1137.7441305894442" class="er relationshipLine"></path><path style="stroke: gray; fill: none;" marker-start="url(#ZERO_OR_MORE_START)" marker-end="url(#ONLY_ONE_END)" stroke-dasharray="8,8" d="M596.3407281839623,482L604.7253464033018,490.3333333333333C613.1099646226415,498.6666666666667,629.8792010613207,515.3333333333334,650.190559960485,532C670.5019188596492,548.6666666666666,694.3554002192983,565.3333333333334,706.2821408991227,573.6666666666666L718.2088815789474,582" class="er relationshipLine"></path><path style="stroke: gray; fill: none;" marker-start="url(#ZERO_OR_MORE_START)" marker-end="url(#ONLY_ONE_END)" stroke-dasharray="8,8" d="M526.1725383254717,482L524.1154616253931,490.3333333333333C522.0583849253145,498.6666666666667,517.9442315251572,515.3333333333334,515.8871548250786,539.5C513.830078125,563.6666666666666,513.830078125,595.3333333333334,513.830078125,627C513.830078125,658.6666666666666,513.830078125,690.3333333333334,513.830078125,720.75C513.830078125,751.1666666666666,513.830078125,780.3333333333334,513.830078125,809.5C513.830078125,838.6666666666666,513.830078125,867.8333333333334,531.240234375,891.8847765245392C548.650390625,915.9362197157452,583.470703125,934.8724394314905,600.880859375,944.3405492893631L618.291015625,953.8086591472359" class="er relationshipLine"></path><path style="stroke: gray; fill: none;" marker-start="url(#ONLY_ONE_START)" marker-end="url(#ZERO_OR_MORE_END)" d="M320,248.70393813567904L356.666015625,260.5866151130659C393.33203125,272.4692920904527,466.6640625,296.2346460452263,503.330078125,316.4506563559465C539.99609375,336.6666666666667,539.99609375,353.3333333333333,539.99609375,361.6666666666667L539.99609375,370" class="er relationshipLine"></path><path style="stroke: gray; fill: none;" marker-start="url(#ONLY_ONE_START)" marker-end="url(#ZERO_OR_MORE_END)" d="M270,463.5L270,474.9166666666667C270,486.3333333333333,270,509.1666666666667,276.8461965460526,530.75C283.69239309210525,552.3333333333334,297.38478618421055,572.6666666666666,304.2309827302632,582.8333333333334L311.0771792763158,593" class="er relationshipLine"></path><path style="stroke: gray; fill: none;" marker-start="url(#ONLY_ONE_START)" marker-end="url(#ZERO_OR_MORE_END)" d="M461.3515625,480.0695473720214L448.7626953125,488.7246228100178C436.173828125,497.3796982480142,410.99609375,514.6898491240071,392.858826754386,533.5115912286702C374.72155975877195,552.3333333333334,363.6247601425439,572.6666666666666,358.0763603344298,582.8333333333334L352.5279605263158,593" class="er relationshipLine"></path><path style="stroke: gray; fill: none;" marker-start="url(#ONLY_ONE_START)" marker-end="url(#ONE_OR_MORE_END)" d="M782.61328125,471L782.61328125,481.1666666666667C782.61328125,491.3333333333333,782.61328125,511.6666666666667,782.61328125,530.1666666666666C782.61328125,548.6666666666666,782.61328125,565.3333333333334,782.61328125,573.6666666666666L782.61328125,582" class="er relationshipLine"></path><path style="stroke: gray; fill: none;" marker-start="url(#ONLY_ONE_START)" marker-end="url(#ONE_OR_MORE_END)" stroke-dasharray="8,8" d="M792.3830180921053,672L794.1922286184212,680.3333333333334C796.001439144737,688.6666666666666,799.6198601973684,705.3333333333334,801.4290707236842,722C803.23828125,738.6666666666666,803.23828125,755.3333333333334,803.23828125,763.6666666666666L803.23828125,772" class="er relationshipLine"></path><path style="stroke: gray; fill: none;" marker-start="url(#ONLY_ONE_START)" marker-end="url(#ONE_OR_MORE_END)" stroke-dasharray="8,8" d="M718.2088815789474,672L706.2821408991227,680.3333333333334C694.3554002192983,688.6666666666666,670.5019188596492,705.3333333333334,658.5751781798245,728.25C646.6484375,751.1666666666666,646.6484375,780.3333333333334,646.6484375,809.5C646.6484375,838.6666666666666,646.6484375,867.8333333333334,648.7955186631945,890.75C650.9425998263888,913.6666666666666,655.2367621527777,930.3333333333334,657.3838433159722,938.6666666666666L659.5309244791666,947" class="er relationshipLine"></path><path style="stroke: gray; fill: none;" marker-start="url(#ONLY_ONE_START)" marker-end="url(#ONE_OR_MORE_END)" d="M803.23828125,847L803.23828125,855.3333333333334C803.23828125,863.6666666666666,803.23828125,880.3333333333334,789.0804036458334,897.4794552270129C774.9225260416666,914.6255771206925,746.6067708333334,932.2511542413848,732.4488932291666,941.0639428017311L718.291015625,949.8767313620772" class="er relationshipLine"></path><path style="stroke: gray; fill: none;" marker-start="url(#ONLY_ONE_START)" marker-end="url(#ONLY_ONE_END)" stroke-dasharray="8,8" d="M668.291015625,1015L668.291015625,1023.3333333333334C668.291015625,1031.6666666666667,668.291015625,1048.3333333333333,633.9065755208334,1068.405100371615C599.5221354166666,1088.4768674098966,530.7532552083334,1111.9537348197935,496.3688151041667,1123.6921685247416L461.984375,1135.43060222969" class="er relationshipLine"></path><g transform="translate(120,20 )" id="entity-Account-6483a2a3-72ff-4546-9b66-3a1baa867ecd"><rect height="75" width="100" y="0" x="0" class="er entityBox"></rect><text style="dominant-baseline: middle; text-anchor: middle; font-size: 12px;" transform="translate(50,37.5)" y="0" x="0" id="text-entity-Account-6483a2a3-72ff-4546-9b66-3a1baa867ecd" class="er entityLabel">Account</text></g><g transform="translate(20,195 )" id="entity-Role-85cc8d2f-0a07-4fd1-b449-8027ec58a98d"><rect height="75" width="100" y="0" x="0" class="er entityBox"></rect><text style="dominant-baseline: middle; text-anchor: middle; font-size: 12px;" transform="translate(50,37.5)" y="0" x="0" id="text-entity-Role-85cc8d2f-0a07-4fd1-b449-8027ec58a98d" class="er entityLabel">Role</text></g><g transform="translate(220,195 )" id="entity-Client-a87d3248-d088-43ff-8a6a-f28a098d345a"><rect height="75" width="100" y="0" x="0" class="er entityBox"></rect><text style="dominant-baseline: middle; text-anchor: middle; font-size: 12px;" transform="translate(50,37.5)" y="0" x="0" id="text-entity-Client-a87d3248-d088-43ff-8a6a-f28a098d345a" class="er entityLabel">Client</text></g><g transform="translate(217.0078125,388.5 )" id="entity-BillingSettings-beb44ca1-6992-4da2-9ffc-34715d31a74f"><rect height="75" width="105.984375" y="0" x="0" class="er entityBox"></rect><text style="dominant-baseline: middle; text-anchor: middle; font-size: 12px;" transform="translate(52.9921875,37.5)" y="0" x="0" id="text-entity-BillingSettings-beb44ca1-6992-4da2-9ffc-34715d31a74f" class="er entityLabel">BillingSettings</text></g><g transform="translate(65.03515625,947 )" id="entity-Vehicle-843bb96f-1e57-442c-a876-da06a601ca0b"><rect height="68" width="100.9140625" y="0" x="0" class="er entityBox"></rect><text style="dominant-baseline: middle; text-anchor: middle; font-size: 12px;" transform="translate(50.45703125,12)" y="0" x="0" id="text-entity-Vehicle-843bb96f-1e57-442c-a876-da06a601ca0b" class="er entityLabel">Vehicle</text><rect height="22" width="62.71875" y="24" x="0" class="er attributeBoxOdd"></rect><text style="dominant-baseline: middle; font-size: 10.2px;" transform="translate(5,35)" y="0" x="0" id="text-entity-Vehicle-843bb96f-1e57-442c-a876-da06a601ca0b-attr-1-type" class="er entityLabel">string</text><rect height="22" width="38.1953125" y="24" x="62.71875" class="er attributeBoxOdd"></rect><text style="dominant-baseline: middle; font-size: 10.2px;" transform="translate(67.71875,35)" y="0" x="0" id="text-entity-Vehicle-843bb96f-1e57-442c-a876-da06a601ca0b-attr-1-name" class="er entityLabel">model</text><rect height="22" width="62.71875" y="46" x="0" class="er attributeBoxEven"></rect><text style="dominant-baseline: middle; font-size: 10.2px;" transform="translate(5,57)" y="0" x="0" id="text-entity-Vehicle-843bb96f-1e57-442c-a876-da06a601ca0b-attr-2-type" class="er entityLabel">VehicleKind</text><rect height="22" width="38.1953125" y="46" x="62.71875" class="er attributeBoxEven"></rect><text style="dominant-baseline: middle; font-size: 10.2px;" transform="translate(67.71875,57)" y="0" x="0" id="text-entity-Vehicle-843bb96f-1e57-442c-a876-da06a601ca0b-attr-2-name" class="er entityLabel">kind</text></g><g transform="translate(361.984375,1115 )" id="entity-PortType-a94bb654-2471-4a7c-bd58-574489c9ec71"><rect height="75" width="100" y="0" x="0" class="er entityBox"></rect><text style="dominant-baseline: middle; text-anchor: middle; font-size: 12px;" transform="translate(50,37.5)" y="0" x="0" id="text-entity-PortType-a94bb654-2471-4a7c-bd58-574489c9ec71" class="er entityLabel">PortType</text></g><g transform="translate(461.3515625,370 )" id="entity-Rent-372125f3-f724-49aa-a24a-caf43050a7e5"><rect height="112" width="157.2890625" y="0" x="0" class="er entityBox"></rect><text style="dominant-baseline: middle; text-anchor: middle; font-size: 12px;" transform="translate(78.64453125,12)" y="0" x="0" id="text-entity-Rent-372125f3-f724-49aa-a24a-caf43050a7e5" class="er entityLabel">Rent</text><rect height="22" width="67.5546875" y="24" x="0" class="er attributeBoxOdd"></rect><text style="dominant-baseline: middle; font-size: 10.2px;" transform="translate(5,35)" y="0" x="0" id="text-entity-Rent-372125f3-f724-49aa-a24a-caf43050a7e5-attr-1-type" class="er entityLabel">timestamptz</text><rect height="22" width="89.734375" y="24" x="67.5546875" class="er attributeBoxOdd"></rect><text style="dominant-baseline: middle; font-size: 10.2px;" transform="translate(72.5546875,35)" y="0" x="0" id="text-entity-Rent-372125f3-f724-49aa-a24a-caf43050a7e5-attr-1-name" class="er entityLabel">started</text><rect height="22" width="67.5546875" y="46" x="0" class="er attributeBoxEven"></rect><text style="dominant-baseline: middle; font-size: 10.2px;" transform="translate(5,57)" y="0" x="0" id="text-entity-Rent-372125f3-f724-49aa-a24a-caf43050a7e5-attr-2-type" class="er entityLabel">json</text><rect height="22" width="89.734375" y="46" x="67.5546875" class="er attributeBoxEven"></rect><text style="dominant-baseline: middle; font-size: 10.2px;" transform="translate(72.5546875,57)" y="0" x="0" id="text-entity-Rent-372125f3-f724-49aa-a24a-caf43050a7e5-attr-2-name" class="er entityLabel">freezedCostRates</text><rect height="22" width="67.5546875" y="68" x="0" class="er attributeBoxOdd"></rect><text style="dominant-baseline: middle; font-size: 10.2px;" transform="translate(5,79)" y="0" x="0" id="text-entity-Rent-372125f3-f724-49aa-a24a-caf43050a7e5-attr-3-type" class="er entityLabel">timestamptz</text><rect height="22" width="89.734375" y="68" x="67.5546875" class="er attributeBoxOdd"></rect><text style="dominant-baseline: middle; font-size: 10.2px;" transform="translate(72.5546875,79)" y="0" x="0" id="text-entity-Rent-372125f3-f724-49aa-a24a-caf43050a7e5-attr-3-name" class="er entityLabel">finished</text><rect height="22" width="67.5546875" y="90" x="0" class="er attributeBoxEven"></rect><text style="dominant-baseline: middle; font-size: 10.2px;" transform="translate(5,101)" y="0" x="0" id="text-entity-Rent-372125f3-f724-49aa-a24a-caf43050a7e5-attr-4-type" class="er entityLabel">number</text><rect height="22" width="89.734375" y="90" x="67.5546875" class="er attributeBoxEven"></rect><text style="dominant-baseline: middle; font-size: 10.2px;" transform="translate(72.5546875,101)" y="0" x="0" id="text-entity-Rent-372125f3-f724-49aa-a24a-caf43050a7e5-attr-4-name" class="er entityLabel">totalPrice</text></g><g transform="translate(716.9765625,582 )" id="entity-Spot-62d83131-e8ca-42db-9531-fdfda61b6098"><rect height="90" width="131.2734375" y="0" x="0" class="er entityBox"></rect><text style="dominant-baseline: middle; text-anchor: middle; font-size: 12px;" transform="translate(65.63671875,12)" y="0" x="0" id="text-entity-Spot-62d83131-e8ca-42db-9531-fdfda61b6098" class="er entityLabel">Spot</text><rect height="22" width="70.2109375" y="24" x="0" class="er attributeBoxOdd"></rect><text style="dominant-baseline: middle; font-size: 10.2px;" transform="translate(5,35)" y="0" x="0" id="text-entity-Spot-62d83131-e8ca-42db-9531-fdfda61b6098-attr-1-type" class="er entityLabel">bool</text><rect height="22" width="61.0625" y="24" x="70.2109375" class="er attributeBoxOdd"></rect><text style="dominant-baseline: middle; font-size: 10.2px;" transform="translate(75.2109375,35)" y="0" x="0" id="text-entity-Spot-62d83131-e8ca-42db-9531-fdfda61b6098-attr-1-name" class="er entityLabel">available</text><rect height="22" width="70.2109375" y="46" x="0" class="er attributeBoxEven"></rect><text style="dominant-baseline: middle; font-size: 10.2px;" transform="translate(5,57)" y="0" x="0" id="text-entity-Spot-62d83131-e8ca-42db-9531-fdfda61b6098-attr-2-type" class="er entityLabel">VehicleKind[]</text><rect height="22" width="61.0625" y="46" x="70.2109375" class="er attributeBoxEven"></rect><text style="dominant-baseline: middle; font-size: 10.2px;" transform="translate(75.2109375,57)" y="0" x="0" id="text-entity-Spot-62d83131-e8ca-42db-9531-fdfda61b6098-attr-2-name" class="er entityLabel">suitableFor</text><rect height="22" width="70.2109375" y="68" x="0" class="er attributeBoxOdd"></rect><text style="dominant-baseline: middle; font-size: 10.2px;" transform="translate(5,79)" y="0" x="0" id="text-entity-Spot-62d83131-e8ca-42db-9531-fdfda61b6098-attr-3-type" class="er entityLabel">number</text><rect height="22" width="61.0625" y="68" x="70.2109375" class="er attributeBoxOdd"></rect><text style="dominant-baseline: middle; font-size: 10.2px;" transform="translate(75.2109375,79)" y="0" x="0" id="text-entity-Spot-62d83131-e8ca-42db-9531-fdfda61b6098-attr-3-name" class="er entityLabel">cost</text></g><g transform="translate(618.291015625,947 )" id="entity-ChargingPort-b45908ad-a6ea-45f1-a0fd-52735aae9c4c"><rect height="68" width="100" y="0" x="0" class="er entityBox"></rect><text style="dominant-baseline: middle; text-anchor: middle; font-size: 12px;" transform="translate(50,12)" y="0" x="0" id="text-entity-ChargingPort-b45908ad-a6ea-45f1-a0fd-52735aae9c4c" class="er entityLabel">ChargingPort</text><rect height="22" width="46.7890625" y="24" x="0" class="er attributeBoxOdd"></rect><text style="dominant-baseline: middle; font-size: 10.2px;" transform="translate(5,35)" y="0" x="0" id="text-entity-ChargingPort-b45908ad-a6ea-45f1-a0fd-52735aae9c4c-attr-1-type" class="er entityLabel">bool</text><rect height="22" width="53.2109375" y="24" x="46.7890625" class="er attributeBoxOdd"></rect><text style="dominant-baseline: middle; font-size: 10.2px;" transform="translate(51.7890625,35)" y="0" x="0" id="text-entity-ChargingPort-b45908ad-a6ea-45f1-a0fd-52735aae9c4c-attr-1-name" class="er entityLabel">available</text><rect height="22" width="46.7890625" y="46" x="0" class="er attributeBoxEven"></rect><text style="dominant-baseline: middle; font-size: 10.2px;" transform="translate(5,57)" y="0" x="0" id="text-entity-ChargingPort-b45908ad-a6ea-45f1-a0fd-52735aae9c4c-attr-2-type" class="er entityLabel">number</text><rect height="22" width="53.2109375" y="46" x="46.7890625" class="er attributeBoxEven"></rect><text style="dominant-baseline: middle; font-size: 10.2px;" transform="translate(51.7890625,57)" y="0" x="0" id="text-entity-ChargingPort-b45908ad-a6ea-45f1-a0fd-52735aae9c4c-attr-2-name" class="er entityLabel">cost</text></g><g transform="translate(277.94921875,593 )" id="entity-Payment-78c214b6-a508-41ff-b1a3-f7e2b60b731b"><rect height="68" width="112.046875" y="0" x="0" class="er entityBox"></rect><text style="dominant-baseline: middle; text-anchor: middle; font-size: 12px;" transform="translate(56.0234375,12)" y="0" x="0" id="text-entity-Payment-78c214b6-a508-41ff-b1a3-f7e2b60b731b" class="er entityLabel">Payment</text><rect height="22" width="67.5546875" y="24" x="0" class="er attributeBoxOdd"></rect><text style="dominant-baseline: middle; font-size: 10.2px;" transform="translate(5,35)" y="0" x="0" id="text-entity-Payment-78c214b6-a508-41ff-b1a3-f7e2b60b731b-attr-1-type" class="er entityLabel">number</text><rect height="22" width="44.4921875" y="24" x="67.5546875" class="er attributeBoxOdd"></rect><text style="dominant-baseline: middle; font-size: 10.2px;" transform="translate(72.5546875,35)" y="0" x="0" id="text-entity-Payment-78c214b6-a508-41ff-b1a3-f7e2b60b731b-attr-1-name" class="er entityLabel">amount</text><rect height="22" width="67.5546875" y="46" x="0" class="er attributeBoxEven"></rect><text style="dominant-baseline: middle; font-size: 10.2px;" transform="translate(5,57)" y="0" x="0" id="text-entity-Payment-78c214b6-a508-41ff-b1a3-f7e2b60b731b-attr-2-type" class="er entityLabel">timestamptz</text><rect height="22" width="44.4921875" y="46" x="67.5546875" class="er attributeBoxEven"></rect><text style="dominant-baseline: middle; font-size: 10.2px;" transform="translate(72.5546875,57)" y="0" x="0" id="text-entity-Payment-78c214b6-a508-41ff-b1a3-f7e2b60b731b-attr-2-name" class="er entityLabel">when</text></g><g transform="translate(732.61328125,381 )" id="entity-Parking-18e5d1ab-ef8d-4372-a1f7-24aeba692aa7"><rect height="90" width="100" y="0" x="0" class="er entityBox"></rect><text style="dominant-baseline: middle; text-anchor: middle; font-size: 12px;" transform="translate(50,12)" y="0" x="0" id="text-entity-Parking-18e5d1ab-ef8d-4372-a1f7-24aeba692aa7" class="er entityLabel">Parking</text><rect height="22" width="44.42578125" y="24" x="0" class="er attributeBoxOdd"></rect><text style="dominant-baseline: middle; font-size: 10.2px;" transform="translate(5,35)" y="0" x="0" id="text-entity-Parking-18e5d1ab-ef8d-4372-a1f7-24aeba692aa7-attr-1-type" class="er entityLabel">string</text><rect height="22" width="55.57421875" y="24" x="44.42578125" class="er attributeBoxOdd"></rect><text style="dominant-baseline: middle; font-size: 10.2px;" transform="translate(49.42578125,35)" y="0" x="0" id="text-entity-Parking-18e5d1ab-ef8d-4372-a1f7-24aeba692aa7-attr-1-name" class="er entityLabel">name</text><rect height="22" width="44.42578125" y="46" x="0" class="er attributeBoxEven"></rect><text style="dominant-baseline: middle; font-size: 10.2px;" transform="translate(5,57)" y="0" x="0" id="text-entity-Parking-18e5d1ab-ef8d-4372-a1f7-24aeba692aa7-attr-2-type" class="er entityLabel">json</text><rect height="22" width="55.57421875" y="46" x="44.42578125" class="er attributeBoxEven"></rect><text style="dominant-baseline: middle; font-size: 10.2px;" transform="translate(49.42578125,57)" y="0" x="0" id="text-entity-Parking-18e5d1ab-ef8d-4372-a1f7-24aeba692aa7-attr-2-name" class="er entityLabel">address</text><rect height="22" width="44.42578125" y="68" x="0" class="er attributeBoxOdd"></rect><text style="dominant-baseline: middle; font-size: 10.2px;" transform="translate(5,79)" y="0" x="0" id="text-entity-Parking-18e5d1ab-ef8d-4372-a1f7-24aeba692aa7-attr-3-type" class="er entityLabel">json</text><rect height="22" width="55.57421875" y="68" x="44.42578125" class="er attributeBoxOdd"></rect><text style="dominant-baseline: middle; font-size: 10.2px;" transform="translate(49.42578125,79)" y="0" x="0" id="text-entity-Parking-18e5d1ab-ef8d-4372-a1f7-24aeba692aa7-attr-3-name" class="er entityLabel">location</text></g><g transform="translate(746.6484375,772 )" id="entity-ElectricCharger-88157bf2-7cda-4eb3-b2c1-7761e5900f2f"><rect height="75" width="113.1796875" y="0" x="0" class="er entityBox"></rect><text style="dominant-baseline: middle; text-anchor: middle; font-size: 12px;" transform="translate(56.58984375,37.5)" y="0" x="0" id="text-entity-ElectricCharger-88157bf2-7cda-4eb3-b2c1-7761e5900f2f" class="er entityLabel">ElectricCharger</text></g><rect height="14" width="66.5859375" y="130.56451416015625" x="51.06880187988281" class="er relationshipLabelBox"></rect><text style="text-anchor: middle; dominant-baseline: middle; font-size: 12px;" y="137.56451416015625" x="84.36177062988281" id="rel211" class="er relationshipLabel">has assigned</text><rect height="14" width="69.046875" y="130.56455993652344" x="221.11476135253906" class="er relationshipLabelBox"></rect><text style="text-anchor: middle; dominant-baseline: middle; font-size: 12px;" y="137.56455993652344" x="255.63819885253906" id="rel212" class="er relationshipLabel">might be the</text><rect height="14" width="17.71875" y="322.25" x="261.140625" class="er relationshipLabelBox"></rect><text style="text-anchor: middle; dominant-baseline: middle; font-size: 12px;" y="329.25" x="270" id="rel213" class="er relationshipLabel">has</text><rect height="14" width="88.037109375" y="573.435302734375" x="71.4736328125" class="er relationshipLabelBox"></rect><text style="text-anchor: middle; dominant-baseline: middle; font-size: 12px;" y="580.435302734375" x="115.4921875" id="rel214" class="er relationshipLabel">owns a model of</text><rect height="14" width="23.671875" y="1088.1802978515625" x="211.53184509277344" class="er relationshipLabelBox"></rect><text style="text-anchor: middle; dominant-baseline: middle; font-size: 12px;" y="1095.1802978515625" x="223.36778259277344" id="rel215" class="er relationshipLabel">with</text><rect height="14" width="70" y="528.4407958984375" x="619.4329223632812" class="er relationshipLabelBox"></rect><text style="text-anchor: middle; dominant-baseline: middle; font-size: 12px;" y="535.4407958984375" x="654.4329223632812" id="rel216" class="er relationshipLabel">the available</text><rect height="14" width="70" y="734.94580078125" x="478.830078125" class="er relationshipLabelBox"></rect><text style="text-anchor: middle; dominant-baseline: middle; font-size: 12px;" y="741.94580078125" x="513.830078125" id="rel217" class="er relationshipLabel">the available</text><rect height="14" width="18.8046875" y="284.20562744140625" x="436.3089294433594" class="er relationshipLabelBox"></rect><text style="text-anchor: middle; dominant-baseline: middle; font-size: 12px;" y="291.20562744140625" x="445.7112731933594" id="rel218" class="er relationshipLabel">can</text><rect height="14" width="83.6953125" y="525.3689575195312" x="235.52572631835938" class="er relationshipLabelBox"></rect><text style="text-anchor: middle; dominant-baseline: middle; font-size: 12px;" y="532.3689575195312" x="277.3733825683594" id="rel219" class="er relationshipLabel">will be used for</text><rect height="14" width="116.359375" y="521.2554931640625" x="339.958251953125" class="er relationshipLabelBox"></rect><text style="text-anchor: middle; dominant-baseline: middle; font-size: 12px;" y="528.2554931640625" x="398.137939453125" id="rel220" class="er relationshipLabel">must be finished with</text><rect height="14" width="17.71875" y="519.5" x="773.75390625" class="er relationshipLabelBox"></rect><text style="text-anchor: middle; dominant-baseline: middle; font-size: 12px;" y="526.5" x="782.61328125" id="rel221" class="er relationshipLabel">has</text><rect height="14" width="74.421875" y="714.6134033203125" x="764.175537109375" class="er relationshipLabelBox"></rect><text style="text-anchor: middle; dominant-baseline: middle; font-size: 12px;" y="721.6134033203125" x="801.386474609375" id="rel222" class="er relationshipLabel">has reachable</text><rect height="14" width="74.421875" y="788.9453125" x="609.4822387695312" class="er relationshipLabelBox"></rect><text style="text-anchor: middle; dominant-baseline: middle; font-size: 12px;" y="795.9453125" x="646.6931762695312" id="rel223" class="er relationshipLabel">has reachable</text><rect height="14" width="23.671875" y="902.724365234375" x="765.0570068359375" class="er relationshipLabelBox"></rect><text style="text-anchor: middle; dominant-baseline: middle; font-size: 12px;" y="909.724365234375" x="776.8929443359375" id="rel224" class="er relationshipLabel">with</text><rect height="14" width="22.828125" y="1085.96240234375" x="569.6096801757812" class="er relationshipLabelBox"></rect><text style="text-anchor: middle; dominant-baseline: middle; font-size: 12px;" y="1092.96240234375" x="581.0237426757812" id="rel225" class="er relationshipLabel">is of</text></svg>