<svg aria-roledescription="er" viewBox="0 0 650.72265625 1553" style="max-width: 100%;" xmlns="http://www.w3.org/2000/svg" width="100%" id="graph-div" height="100%" xmlns:xlink="http://www.w3.org/1999/xlink"><style>@import url("https://cdnjs.cloudflare.com/ajax/libs/font-awesome/6.2.1/css/all.min.css");'</style><style>#graph-div{font-family:"trebuchet ms",verdana,arial,sans-serif;font-size:16px;fill:#ccc;}#graph-div .error-icon{fill:#a44141;}#graph-div .error-text{fill:#ddd;stroke:#ddd;}#graph-div .edge-thickness-normal{stroke-width:2px;}#graph-div .edge-thickness-thick{stroke-width:3.5px;}#graph-div .edge-pattern-solid{stroke-dasharray:0;}#graph-div .edge-pattern-dashed{stroke-dasharray:3;}#graph-div .edge-pattern-dotted{stroke-dasharray:2;}#graph-div .marker{fill:lightgrey;stroke:lightgrey;}#graph-div .marker.cross{stroke:lightgrey;}#graph-div svg{font-family:"trebuchet ms",verdana,arial,sans-serif;font-size:16px;}#graph-div .entityBox{fill:#1f2020;stroke:#81B1DB;}#graph-div .attributeBoxOdd{fill:hsl(0, 0%, 32%);stroke:#81B1DB;}#graph-div .attributeBoxEven{fill:hsl(0, 0%, 22%);stroke:#81B1DB;}#graph-div .relationshipLabelBox{fill:hsl(20, 1.5873015873%, 12.3529411765%);opacity:0.7;background-color:hsl(20, 1.5873015873%, 12.3529411765%);}#graph-div .relationshipLabelBox rect{opacity:0.5;}#graph-div .relationshipLine{stroke:lightgrey;}#graph-div .entityTitleText{text-anchor:middle;font-size:18px;fill:#ccc;}#graph-div :root{--mermaid-font-family:"trebuchet ms",verdana,arial,sans-serif;}</style><g></g><defs><marker orient="auto" markerHeight="18" markerWidth="18" refY="9" refX="0" id="ONLY_ONE_START"><path d="M9,0 L9,18 M15,0 L15,18" fill="none" stroke="gray"></path></marker></defs><defs><marker orient="auto" markerHeight="18" markerWidth="18" refY="9" refX="18" id="ONLY_ONE_END"><path d="M3,0 L3,18 M9,0 L9,18" fill="none" stroke="gray"></path></marker></defs><defs><marker orient="auto" markerHeight="18" markerWidth="30" refY="9" refX="0" id="ZERO_OR_ONE_START"><circle r="6" cy="9" cx="21" fill="white" stroke="gray"></circle><path d="M9,0 L9,18" fill="none" stroke="gray"></path></marker></defs><defs><marker orient="auto" markerHeight="18" markerWidth="30" refY="9" refX="30" id="ZERO_OR_ONE_END"><circle r="6" cy="9" cx="9" fill="white" stroke="gray"></circle><path d="M21,0 L21,18" fill="none" stroke="gray"></path></marker></defs><defs><marker orient="auto" markerHeight="36" markerWidth="45" refY="18" refX="18" id="ONE_OR_MORE_START"><path d="M0,18 Q 18,0 36,18 Q 18,36 0,18 M42,9 L42,27" fill="none" stroke="gray"></path></marker></defs><defs><marker orient="auto" markerHeight="36" markerWidth="45" refY="18" refX="27" id="ONE_OR_MORE_END"><path d="M3,9 L3,27 M9,18 Q27,0 45,18 Q27,36 9,18" fill="none" stroke="gray"></path></marker></defs><defs><marker orient="auto" markerHeight="36" markerWidth="57" refY="18" refX="18" id="ZERO_OR_MORE_START"><circle r="6" cy="18" cx="48" fill="white" stroke="gray"></circle><path d="M0,18 Q18,0 36,18 Q18,36 0,18" fill="none" stroke="gray"></path></marker></defs><defs><marker orient="auto" markerHeight="36" markerWidth="57" refY="18" refX="39" id="ZERO_OR_MORE_END"><circle r="6" cy="18" cx="9" fill="white" stroke="gray"></circle><path d="M21,18 Q39,0 57,18 Q39,36 21,18" fill="none" stroke="gray"></path></marker></defs><path style="stroke: gray; fill: none;" marker-start="url(#ONE_OR_MORE_START)" marker-end="url(#ONE_OR_MORE_END)" stroke-dasharray="8,8" d="M99.25697544642857,95L94.49507068452381,103.33333333333333C89.73316592261904,111.66666666666667,80.20935639880952,128.33333333333334,75.44745163690476,145C70.685546875,161.66666666666666,70.685546875,178.33333333333334,70.685546875,186.66666666666666L70.685546875,195" class="er relationshipLine"></path><path style="stroke: gray; fill: none;" marker-start="url(#ONLY_ONE_START)" marker-end="url(#ZERO_OR_ONE_END)" d="M170.685546875,86.66666666666667L187.35221354166666,96.3888888888889C204.01888020833334,106.11111111111113,237.35221354166666,125.55555555555556,254.01888020833334,143.61111111111111C270.685546875,161.66666666666666,270.685546875,178.33333333333334,270.685546875,186.66666666666666L270.685546875,195" class="er relationshipLine"></path><path style="stroke: gray; fill: none;" marker-start="url(#ONLY_ONE_START)" marker-end="url(#ONE_OR_MORE_END)" d="M316.12416294642856,270L326.2216331845238,278.3333333333333C336.31910342261904,286.6666666666667,356.51404389880946,303.3333333333333,366.61151413690476,320C376.708984375,336.6666666666667,376.708984375,353.3333333333333,376.708984375,361.6666666666667L376.708984375,370" class="er relationshipLine"></path><path style="stroke: gray; fill: none;" marker-start="url(#ZERO_OR_MORE_START)" marker-end="url(#ONLY_ONE_END)" stroke-dasharray="8,8" d="M220.685546875,254.35003462840308L195.6474609375,265.29169552366926C170.609375,276.2333564189354,120.533203125,298.1166782094677,95.4951171875,323.6416724380672C70.45703125,349.1666666666667,70.45703125,378.3333333333333,70.45703125,407.5C70.45703125,436.6666666666667,70.45703125,465.8333333333333,70.45703125,494.4166666666667C70.45703125,523,70.45703125,551,70.45703125,579C70.45703125,607,70.45703125,635,70.45703125,666.6666666666666C70.45703125,698.3333333333334,70.45703125,733.6666666666666,70.45703125,769C70.45703125,804.3333333333334,70.45703125,839.6666666666666,70.45703125,873.1666666666666C70.45703125,906.6666666666666,70.45703125,938.3333333333334,70.45703125,970C70.45703125,1001.6666666666666,70.45703125,1033.3333333333333,70.45703125,1063.75C70.45703125,1094.1666666666667,70.45703125,1123.3333333333333,70.45703125,1152.5C70.45703125,1181.6666666666667,70.45703125,1210.8333333333333,70.45703125,1233.75C70.45703125,1256.6666666666667,70.45703125,1273.3333333333333,70.45703125,1281.6666666666667L70.45703125,1290" class="er relationshipLine"></path><path style="stroke: gray; fill: none;" marker-start="url(#ONLY_ONE_START)" marker-end="url(#ONLY_ONE_END)" stroke-dasharray="8,8" d="M70.45703125,1358L70.45703125,1366.3333333333333C70.45703125,1374.6666666666667,70.45703125,1391.3333333333333,95.4951171875,1410.6083275619328C120.533203125,1429.8833217905321,170.609375,1451.7666435810645,195.6474609375,1462.7083044763306L220.685546875,1473.6499653715969" class="er relationshipLine"></path><path style="stroke: gray; fill: none;" marker-start="url(#ZERO_OR_MORE_START)" marker-end="url(#ONLY_ONE_END)" stroke-dasharray="8,8" d="M355.55564563679246,825L359.8823088639937,833.3333333333334C364.20897209119494,841.6666666666666,372.86229854559747,858.3333333333334,395.18440448113205,876.5138713887139C417.5065104166667,894.6944094440945,453.4973958333333,914.3888188881889,471.4928385416667,924.2360236102362L489.48828125,934.0832283322833" class="er relationshipLine"></path><path style="stroke: gray; fill: none;" marker-start="url(#ZERO_OR_MORE_START)" marker-end="url(#ONLY_ONE_END)" stroke-dasharray="8,8" d="M270.58881191037733,825L262.2716010711478,833.3333333333334C253.9543902319182,841.6666666666666,237.31996855345912,858.3333333333334,229.00275771422957,882.5C220.685546875,906.6666666666666,220.685546875,938.3333333333334,220.685546875,970C220.685546875,1001.6666666666666,220.685546875,1033.3333333333333,220.685546875,1063.75C220.685546875,1094.1666666666667,220.685546875,1123.3333333333333,220.685546875,1152.5C220.685546875,1181.6666666666667,220.685546875,1210.8333333333333,244.40787760416666,1235.777164254887C268.1302083333333,1260.7209951764407,315.5748697916667,1281.4419903528815,339.2972005208333,1291.8024879411018L363.01953125,1302.1629855293222" class="er relationshipLine"></path><path style="stroke: gray; fill: none;" marker-start="url(#ONLY_ONE_START)" marker-end="url(#ZERO_OR_MORE_END)" d="M249.25697544642858,270L244.49507068452382,278.3333333333333C239.73316592261904,286.6666666666667,230.20935639880952,303.3333333333333,225.4474516369048,326.25C220.685546875,349.1666666666667,220.685546875,378.3333333333333,220.685546875,407.5C220.685546875,436.6666666666667,220.685546875,465.8333333333333,220.685546875,494.4166666666667C220.685546875,523,220.685546875,551,220.685546875,579C220.685546875,607,220.685546875,635,229.00275771422957,657.3333333333334C237.31996855345912,679.6666666666666,253.9543902319182,696.3333333333334,262.2716010711478,704.6666666666666L270.58881191037733,713" class="er relationshipLine"></path><path style="stroke: gray; fill: none;" marker-start="url(#ONLY_ONE_START)" marker-end="url(#ZERO_OR_MORE_END)" d="M376.708984375,445L376.708984375,453.3333333333333C376.708984375,461.6666666666667,376.708984375,478.3333333333333,376.708984375,495C376.708984375,511.6666666666667,376.708984375,528.3333333333334,376.708984375,536.6666666666666L376.708984375,545" class="er relationshipLine"></path><path style="stroke: gray; fill: none;" marker-start="url(#ZERO_OR_MORE_START)" marker-end="url(#ONLY_ONE_END)" d="M376.708984375,613L376.708984375,621.3333333333334C376.708984375,629.6666666666666,376.708984375,646.3333333333334,372.7602017000786,663C368.8114190251572,679.6666666666666,360.91385367531444,696.3333333333334,356.96507100039304,704.6666666666666L353.0162883254717,713" class="er relationshipLine"></path><path style="stroke: gray; fill: none;" marker-start="url(#ONLY_ONE_START)" marker-end="url(#ONE_OR_MORE_END)" d="M555.125,814L555.125,824.1666666666666C555.125,834.3333333333334,555.125,854.6666666666666,555.125,873.1666666666666C555.125,891.6666666666666,555.125,908.3333333333334,555.125,916.6666666666666L555.125,925" class="er relationshipLine"></path><path style="stroke: gray; fill: none;" marker-start="url(#ONLY_ONE_START)" marker-end="url(#ONE_OR_MORE_END)" stroke-dasharray="8,8" d="M564.1287006578947,1015L565.7960526315788,1023.3333333333334C567.4634046052631,1031.6666666666667,570.7981085526316,1048.3333333333333,572.4654605263157,1065C574.1328125,1081.6666666666667,574.1328125,1098.3333333333333,574.1328125,1106.6666666666667L574.1328125,1115" class="er relationshipLine"></path><path style="stroke: gray; fill: none;" marker-start="url(#ONLY_ONE_START)" marker-end="url(#ONE_OR_MORE_END)" stroke-dasharray="8,8" d="M489.48828125,1000.9618573797678L466.8623046875,1011.6348811498065C444.236328125,1022.3079049198453,398.984375,1043.6539524599227,376.3583984375,1068.9103095632947C353.732421875,1094.1666666666667,353.732421875,1123.3333333333333,353.732421875,1152.5C353.732421875,1181.6666666666667,353.732421875,1210.8333333333333,359.61407955109127,1233.75C365.4957372271826,1256.6666666666667,377.25905257936506,1273.3333333333333,383.1407102554563,1281.6666666666667L389.0223679315476,1290" class="er relationshipLine"></path><path style="stroke: gray; fill: none;" marker-start="url(#ONLY_ONE_START)" marker-end="url(#ONE_OR_MORE_END)" d="M574.1328125,1190L574.1328125,1198.3333333333333C574.1328125,1206.6666666666667,574.1328125,1223.3333333333333,555.6139322916666,1241.32189760375C537.0950520833334,1259.3104618741665,500.0572916666667,1278.620923748333,481.5384114583333,1288.2761546854165L463.01953125,1297.9313856224996" class="er relationshipLine"></path><path style="stroke: gray; fill: none;" marker-start="url(#ONLY_ONE_START)" marker-end="url(#ONLY_ONE_END)" stroke-dasharray="8,8" d="M413.01953125,1358L413.01953125,1366.3333333333333C413.01953125,1374.6666666666667,413.01953125,1391.3333333333333,397.6305338541667,1409.1270726129217C382.2415364583333,1426.92081189251,351.4635416666667,1445.84162378502,336.0745442708333,1455.302029731275L320.685546875,1464.76243567753" class="er relationshipLine"></path><g transform="translate(70.685546875,20 )" id="entity-Account-63c95e8b-33fc-42e2-9635-c64322de1c4a"><rect height="75" width="100" y="0" x="0" class="er entityBox"></rect><text style="dominant-baseline: middle; text-anchor: middle; font-size: 12px;" transform="translate(50,37.5)" y="0" x="0" id="text-entity-Account-63c95e8b-33fc-42e2-9635-c64322de1c4a" class="er entityLabel">Account</text></g><g transform="translate(20.685546875,195 )" id="entity-Role-ab0a77ab-f0e2-46f9-8e13-cb185546619f"><rect height="75" width="100" y="0" x="0" class="er entityBox"></rect><text style="dominant-baseline: middle; text-anchor: middle; font-size: 12px;" transform="translate(50,37.5)" y="0" x="0" id="text-entity-Role-ab0a77ab-f0e2-46f9-8e13-cb185546619f" class="er entityLabel">Role</text></g><g transform="translate(220.685546875,195 )" id="entity-Client-0bab20fb-2920-4591-a824-c411e8d26ca7"><rect height="75" width="100" y="0" x="0" class="er entityBox"></rect><text style="dominant-baseline: middle; text-anchor: middle; font-size: 12px;" transform="translate(50,37.5)" y="0" x="0" id="text-entity-Client-0bab20fb-2920-4591-a824-c411e8d26ca7" class="er entityLabel">Client</text></g><g transform="translate(323.716796875,370 )" id="entity-BillingSettings-d4bfb885-8fe4-48aa-8d92-824168173e7b"><rect height="75" width="105.984375" y="0" x="0" class="er entityBox"></rect><text style="dominant-baseline: middle; text-anchor: middle; font-size: 12px;" transform="translate(52.9921875,37.5)" y="0" x="0" id="text-entity-BillingSettings-d4bfb885-8fe4-48aa-8d92-824168173e7b" class="er entityLabel">BillingSettings</text></g><g transform="translate(20,1290 )" id="entity-Vehicle-0d788ad9-7efe-427d-a211-5964dfb5dbf3"><rect height="68" width="100.9140625" y="0" x="0" class="er entityBox"></rect><text style="dominant-baseline: middle; text-anchor: middle; font-size: 12px;" transform="translate(50.45703125,12)" y="0" x="0" id="text-entity-Vehicle-0d788ad9-7efe-427d-a211-5964dfb5dbf3" class="er entityLabel">Vehicle</text><rect height="22" width="62.71875" y="24" x="0" class="er attributeBoxOdd"></rect><text style="dominant-baseline: middle; font-size: 10.2px;" transform="translate(5,35)" y="0" x="0" id="text-entity-Vehicle-0d788ad9-7efe-427d-a211-5964dfb5dbf3-attr-1-type" class="er entityLabel">string</text><rect height="22" width="38.1953125" y="24" x="62.71875" class="er attributeBoxOdd"></rect><text style="dominant-baseline: middle; font-size: 10.2px;" transform="translate(67.71875,35)" y="0" x="0" id="text-entity-Vehicle-0d788ad9-7efe-427d-a211-5964dfb5dbf3-attr-1-name" class="er entityLabel">model</text><rect height="22" width="62.71875" y="46" x="0" class="er attributeBoxEven"></rect><text style="dominant-baseline: middle; font-size: 10.2px;" transform="translate(5,57)" y="0" x="0" id="text-entity-Vehicle-0d788ad9-7efe-427d-a211-5964dfb5dbf3-attr-2-type" class="er entityLabel">VehicleKind</text><rect height="22" width="38.1953125" y="46" x="62.71875" class="er attributeBoxEven"></rect><text style="dominant-baseline: middle; font-size: 10.2px;" transform="translate(67.71875,57)" y="0" x="0" id="text-entity-Vehicle-0d788ad9-7efe-427d-a211-5964dfb5dbf3-attr-2-name" class="er entityLabel">kind</text></g><g transform="translate(220.685546875,1458 )" id="entity-PortType-322fd511-eab5-4c44-94d8-39056c3c6f0d"><rect height="75" width="100" y="0" x="0" class="er entityBox"></rect><text style="dominant-baseline: middle; text-anchor: middle; font-size: 12px;" transform="translate(50,37.5)" y="0" x="0" id="text-entity-PortType-322fd511-eab5-4c44-94d8-39056c3c6f0d" class="er entityLabel">PortType</text></g><g transform="translate(247.8359375,713 )" id="entity-Rent-e0f1eca4-d2a6-430a-98b5-bade415e610f"><rect height="112" width="157.2890625" y="0" x="0" class="er entityBox"></rect><text style="dominant-baseline: middle; text-anchor: middle; font-size: 12px;" transform="translate(78.64453125,12)" y="0" x="0" id="text-entity-Rent-e0f1eca4-d2a6-430a-98b5-bade415e610f" class="er entityLabel">Rent</text><rect height="22" width="67.5546875" y="24" x="0" class="er attributeBoxOdd"></rect><text style="dominant-baseline: middle; font-size: 10.2px;" transform="translate(5,35)" y="0" x="0" id="text-entity-Rent-e0f1eca4-d2a6-430a-98b5-bade415e610f-attr-1-type" class="er entityLabel">timestamptz</text><rect height="22" width="89.734375" y="24" x="67.5546875" class="er attributeBoxOdd"></rect><text style="dominant-baseline: middle; font-size: 10.2px;" transform="translate(72.5546875,35)" y="0" x="0" id="text-entity-Rent-e0f1eca4-d2a6-430a-98b5-bade415e610f-attr-1-name" class="er entityLabel">started</text><rect height="22" width="67.5546875" y="46" x="0" class="er attributeBoxEven"></rect><text style="dominant-baseline: middle; font-size: 10.2px;" transform="translate(5,57)" y="0" x="0" id="text-entity-Rent-e0f1eca4-d2a6-430a-98b5-bade415e610f-attr-2-type" class="er entityLabel">json</text><rect height="22" width="89.734375" y="46" x="67.5546875" class="er attributeBoxEven"></rect><text style="dominant-baseline: middle; font-size: 10.2px;" transform="translate(72.5546875,57)" y="0" x="0" id="text-entity-Rent-e0f1eca4-d2a6-430a-98b5-bade415e610f-attr-2-name" class="er entityLabel">freezedCostRates</text><rect height="22" width="67.5546875" y="68" x="0" class="er attributeBoxOdd"></rect><text style="dominant-baseline: middle; font-size: 10.2px;" transform="translate(5,79)" y="0" x="0" id="text-entity-Rent-e0f1eca4-d2a6-430a-98b5-bade415e610f-attr-3-type" class="er entityLabel">timestamptz</text><rect height="22" width="89.734375" y="68" x="67.5546875" class="er attributeBoxOdd"></rect><text style="dominant-baseline: middle; font-size: 10.2px;" transform="translate(72.5546875,79)" y="0" x="0" id="text-entity-Rent-e0f1eca4-d2a6-430a-98b5-bade415e610f-attr-3-name" class="er entityLabel">finished</text><rect height="22" width="67.5546875" y="90" x="0" class="er attributeBoxEven"></rect><text style="dominant-baseline: middle; font-size: 10.2px;" transform="translate(5,101)" y="0" x="0" id="text-entity-Rent-e0f1eca4-d2a6-430a-98b5-bade415e610f-attr-4-type" class="er entityLabel">number</text><rect height="22" width="89.734375" y="90" x="67.5546875" class="er attributeBoxEven"></rect><text style="dominant-baseline: middle; font-size: 10.2px;" transform="translate(72.5546875,101)" y="0" x="0" id="text-entity-Rent-e0f1eca4-d2a6-430a-98b5-bade415e610f-attr-4-name" class="er entityLabel">totalPrice</text></g><g transform="translate(489.48828125,925 )" id="entity-Spot-3b67a43e-6a9f-48e0-8692-7d6e44527040"><rect height="90" width="131.2734375" y="0" x="0" class="er entityBox"></rect><text style="dominant-baseline: middle; text-anchor: middle; font-size: 12px;" transform="translate(65.63671875,12)" y="0" x="0" id="text-entity-Spot-3b67a43e-6a9f-48e0-8692-7d6e44527040" class="er entityLabel">Spot</text><rect height="22" width="70.2109375" y="24" x="0" class="er attributeBoxOdd"></rect><text style="dominant-baseline: middle; font-size: 10.2px;" transform="translate(5,35)" y="0" x="0" id="text-entity-Spot-3b67a43e-6a9f-48e0-8692-7d6e44527040-attr-1-type" class="er entityLabel">bool</text><rect height="22" width="61.0625" y="24" x="70.2109375" class="er attributeBoxOdd"></rect><text style="dominant-baseline: middle; font-size: 10.2px;" transform="translate(75.2109375,35)" y="0" x="0" id="text-entity-Spot-3b67a43e-6a9f-48e0-8692-7d6e44527040-attr-1-name" class="er entityLabel">available</text><rect height="22" width="70.2109375" y="46" x="0" class="er attributeBoxEven"></rect><text style="dominant-baseline: middle; font-size: 10.2px;" transform="translate(5,57)" y="0" x="0" id="text-entity-Spot-3b67a43e-6a9f-48e0-8692-7d6e44527040-attr-2-type" class="er entityLabel">VehicleKind[]</text><rect height="22" width="61.0625" y="46" x="70.2109375" class="er attributeBoxEven"></rect><text style="dominant-baseline: middle; font-size: 10.2px;" transform="translate(75.2109375,57)" y="0" x="0" id="text-entity-Spot-3b67a43e-6a9f-48e0-8692-7d6e44527040-attr-2-name" class="er entityLabel">suitableFor</text><rect height="22" width="70.2109375" y="68" x="0" class="er attributeBoxOdd"></rect><text style="dominant-baseline: middle; font-size: 10.2px;" transform="translate(5,79)" y="0" x="0" id="text-entity-Spot-3b67a43e-6a9f-48e0-8692-7d6e44527040-attr-3-type" class="er entityLabel">number</text><rect height="22" width="61.0625" y="68" x="70.2109375" class="er attributeBoxOdd"></rect><text style="dominant-baseline: middle; font-size: 10.2px;" transform="translate(75.2109375,79)" y="0" x="0" id="text-entity-Spot-3b67a43e-6a9f-48e0-8692-7d6e44527040-attr-3-name" class="er entityLabel">cost</text></g><g transform="translate(363.01953125,1290 )" id="entity-ChargingPort-2356122b-58a6-4731-863b-3ccddf31269d"><rect height="68" width="100" y="0" x="0" class="er entityBox"></rect><text style="dominant-baseline: middle; text-anchor: middle; font-size: 12px;" transform="translate(50,12)" y="0" x="0" id="text-entity-ChargingPort-2356122b-58a6-4731-863b-3ccddf31269d" class="er entityLabel">ChargingPort</text><rect height="22" width="46.7890625" y="24" x="0" class="er attributeBoxOdd"></rect><text style="dominant-baseline: middle; font-size: 10.2px;" transform="translate(5,35)" y="0" x="0" id="text-entity-ChargingPort-2356122b-58a6-4731-863b-3ccddf31269d-attr-1-type" class="er entityLabel">bool</text><rect height="22" width="53.2109375" y="24" x="46.7890625" class="er attributeBoxOdd"></rect><text style="dominant-baseline: middle; font-size: 10.2px;" transform="translate(51.7890625,35)" y="0" x="0" id="text-entity-ChargingPort-2356122b-58a6-4731-863b-3ccddf31269d-attr-1-name" class="er entityLabel">available</text><rect height="22" width="46.7890625" y="46" x="0" class="er attributeBoxEven"></rect><text style="dominant-baseline: middle; font-size: 10.2px;" transform="translate(5,57)" y="0" x="0" id="text-entity-ChargingPort-2356122b-58a6-4731-863b-3ccddf31269d-attr-2-type" class="er entityLabel">number</text><rect height="22" width="53.2109375" y="46" x="46.7890625" class="er attributeBoxEven"></rect><text style="dominant-baseline: middle; font-size: 10.2px;" transform="translate(51.7890625,57)" y="0" x="0" id="text-entity-ChargingPort-2356122b-58a6-4731-863b-3ccddf31269d-attr-2-name" class="er entityLabel">cost</text></g><g transform="translate(320.685546875,545 )" id="entity-Payment-574450b4-1b8b-42ce-9272-4ced4f9b43b9"><rect height="68" width="112.046875" y="0" x="0" class="er entityBox"></rect><text style="dominant-baseline: middle; text-anchor: middle; font-size: 12px;" transform="translate(56.0234375,12)" y="0" x="0" id="text-entity-Payment-574450b4-1b8b-42ce-9272-4ced4f9b43b9" class="er entityLabel">Payment</text><rect height="22" width="67.5546875" y="24" x="0" class="er attributeBoxOdd"></rect><text style="dominant-baseline: middle; font-size: 10.2px;" transform="translate(5,35)" y="0" x="0" id="text-entity-Payment-574450b4-1b8b-42ce-9272-4ced4f9b43b9-attr-1-type" class="er entityLabel">number</text><rect height="22" width="44.4921875" y="24" x="67.5546875" class="er attributeBoxOdd"></rect><text style="dominant-baseline: middle; font-size: 10.2px;" transform="translate(72.5546875,35)" y="0" x="0" id="text-entity-Payment-574450b4-1b8b-42ce-9272-4ced4f9b43b9-attr-1-name" class="er entityLabel">amount</text><rect height="22" width="67.5546875" y="46" x="0" class="er attributeBoxEven"></rect><text style="dominant-baseline: middle; font-size: 10.2px;" transform="translate(5,57)" y="0" x="0" id="text-entity-Payment-574450b4-1b8b-42ce-9272-4ced4f9b43b9-attr-2-type" class="er entityLabel">timestamptz</text><rect height="22" width="44.4921875" y="46" x="67.5546875" class="er attributeBoxEven"></rect><text style="dominant-baseline: middle; font-size: 10.2px;" transform="translate(72.5546875,57)" y="0" x="0" id="text-entity-Payment-574450b4-1b8b-42ce-9272-4ced4f9b43b9-attr-2-name" class="er entityLabel">when</text></g><g transform="translate(505.125,724 )" id="entity-Parking-c90f9f08-4d60-4f89-befd-1c125a60b889"><rect height="90" width="100" y="0" x="0" class="er entityBox"></rect><text style="dominant-baseline: middle; text-anchor: middle; font-size: 12px;" transform="translate(50,12)" y="0" x="0" id="text-entity-Parking-c90f9f08-4d60-4f89-befd-1c125a60b889" class="er entityLabel">Parking</text><rect height="22" width="44.42578125" y="24" x="0" class="er attributeBoxOdd"></rect><text style="dominant-baseline: middle; font-size: 10.2px;" transform="translate(5,35)" y="0" x="0" id="text-entity-Parking-c90f9f08-4d60-4f89-befd-1c125a60b889-attr-1-type" class="er entityLabel">string</text><rect height="22" width="55.57421875" y="24" x="44.42578125" class="er attributeBoxOdd"></rect><text style="dominant-baseline: middle; font-size: 10.2px;" transform="translate(49.42578125,35)" y="0" x="0" id="text-entity-Parking-c90f9f08-4d60-4f89-befd-1c125a60b889-attr-1-name" class="er entityLabel">name</text><rect height="22" width="44.42578125" y="46" x="0" class="er attributeBoxEven"></rect><text style="dominant-baseline: middle; font-size: 10.2px;" transform="translate(5,57)" y="0" x="0" id="text-entity-Parking-c90f9f08-4d60-4f89-befd-1c125a60b889-attr-2-type" class="er entityLabel">json</text><rect height="22" width="55.57421875" y="46" x="44.42578125" class="er attributeBoxEven"></rect><text style="dominant-baseline: middle; font-size: 10.2px;" transform="translate(49.42578125,57)" y="0" x="0" id="text-entity-Parking-c90f9f08-4d60-4f89-befd-1c125a60b889-attr-2-name" class="er entityLabel">address</text><rect height="22" width="44.42578125" y="68" x="0" class="er attributeBoxOdd"></rect><text style="dominant-baseline: middle; font-size: 10.2px;" transform="translate(5,79)" y="0" x="0" id="text-entity-Parking-c90f9f08-4d60-4f89-befd-1c125a60b889-attr-3-type" class="er entityLabel">json</text><rect height="22" width="55.57421875" y="68" x="44.42578125" class="er attributeBoxOdd"></rect><text style="dominant-baseline: middle; font-size: 10.2px;" transform="translate(49.42578125,79)" y="0" x="0" id="text-entity-Parking-c90f9f08-4d60-4f89-befd-1c125a60b889-attr-3-name" class="er entityLabel">location</text></g><g transform="translate(517.54296875,1115 )" id="entity-ElectricCharger-9aec46d5-9d81-432e-9455-ae064bc005d8"><rect height="75" width="113.1796875" y="0" x="0" class="er entityBox"></rect><text style="dominant-baseline: middle; text-anchor: middle; font-size: 12px;" transform="translate(56.58984375,37.5)" y="0" x="0" id="text-entity-ElectricCharger-9aec46d5-9d81-432e-9455-ae064bc005d8" class="er entityLabel">ElectricCharger</text></g><rect height="14" width="66.5859375" y="135.55276489257812" x="42.88726806640625" class="er relationshipLabelBox"></rect><text style="text-anchor: middle; dominant-baseline: middle; font-size: 12px;" y="142.55276489257812" x="76.18023681640625" id="rel31" class="er relationshipLabel">has assigned</text><rect height="14" width="69.046875" y="121.52340698242188" x="202.51699829101562" class="er relationshipLabelBox"></rect><text style="text-anchor: middle; dominant-baseline: middle; font-size: 12px;" y="128.52340698242188" x="237.04043579101562" id="rel32" class="er relationshipLabel">might be the</text><rect height="14" width="17.71875" y="304.97003173828125" x="352.16229248046875" class="er relationshipLabelBox"></rect><text style="text-anchor: middle; dominant-baseline: middle; font-size: 12px;" y="311.97003173828125" x="361.02166748046875" id="rel33" class="er relationshipLabel">has</text><rect height="14" width="88.037109375" y="724.7034912109375" x="26.4384765625" class="er relationshipLabelBox"></rect><text style="text-anchor: middle; dominant-baseline: middle; font-size: 12px;" y="731.7034912109375" x="70.45703125" id="rel34" class="er relationshipLabel">owns a model of</text><rect height="14" width="23.671875" y="1424.366455078125" x="117.27142333984375" class="er relationshipLabelBox"></rect><text style="text-anchor: middle; dominant-baseline: middle; font-size: 12px;" y="1431.366455078125" x="129.10736083984375" id="rel35" class="er relationshipLabel">with</text><rect height="14" width="70" y="882.8145141601562" x="378.3394470214844" class="er relationshipLabelBox"></rect><text style="text-anchor: middle; dominant-baseline: middle; font-size: 12px;" y="889.8145141601562" x="413.3394470214844" id="rel36" class="er relationshipLabel">the available</text><rect height="14" width="70" y="1087.19384765625" x="185.685546875" class="er relationshipLabelBox"></rect><text style="text-anchor: middle; dominant-baseline: middle; font-size: 12px;" y="1094.19384765625" x="220.685546875" id="rel37" class="er relationshipLabel">the available</text><rect height="14" width="18.8046875" y="489.432861328125" x="211.283203125" class="er relationshipLabelBox"></rect><text style="text-anchor: middle; dominant-baseline: middle; font-size: 12px;" y="496.432861328125" x="220.685546875" id="rel38" class="er relationshipLabel">can</text><rect height="14" width="83.6953125" y="488" x="334.861328125" class="er relationshipLabelBox"></rect><text style="text-anchor: middle; dominant-baseline: middle; font-size: 12px;" y="495" x="376.708984375" id="rel39" class="er relationshipLabel">will be used for</text><rect height="14" width="37.015625" y="657.7379150390625" x="353.8260803222656" class="er relationshipLabelBox"></rect><text style="text-anchor: middle; dominant-baseline: middle; font-size: 12px;" y="664.7379150390625" x="372.3338928222656" id="rel40" class="er relationshipLabel">for the</text><rect height="14" width="17.71875" y="862.5" x="546.265625" class="er relationshipLabelBox"></rect><text style="text-anchor: middle; dominant-baseline: middle; font-size: 12px;" y="869.5" x="555.125" id="rel41" class="er relationshipLabel">has</text><rect height="14" width="74.421875" y="1057.6708984375" x="535.2205810546875" class="er relationshipLabelBox"></rect><text style="text-anchor: middle; dominant-baseline: middle; font-size: 12px;" y="1064.6708984375" x="572.4315185546875" id="rel42" class="er relationshipLabel">has reachable</text><rect height="14" width="74.421875" y="1107.532470703125" x="318.4183044433594" class="er relationshipLabelBox"></rect><text style="text-anchor: middle; dominant-baseline: middle; font-size: 12px;" y="1114.532470703125" x="355.6292419433594" id="rel43" class="er relationshipLabel">has reachable</text><rect height="14" width="23.671875" y="1250.4488525390625" x="523.2922973632812" class="er relationshipLabelBox"></rect><text style="text-anchor: middle; dominant-baseline: middle; font-size: 12px;" y="1257.4488525390625" x="535.1282348632812" id="rel44" class="er relationshipLabel">with</text><rect height="14" width="22.828125" y="1416.03662109375" x="371.6461181640625" class="er relationshipLabelBox"></rect><text style="text-anchor: middle; dominant-baseline: middle; font-size: 12px;" y="1423.03662109375" x="383.0601806640625" id="rel45" class="er relationshipLabel">is of</text></svg>