<?xml version="1.0" encoding="UTF-8" standalone="no"?><svg xmlns="http://www.w3.org/2000/svg" xmlns:xlink="http://www.w3.org/1999/xlink" contentStyleType="text/css" height="975px" preserveAspectRatio="none" style="width:734px;height:975px;background:#FFFFFF;" version="1.1" viewBox="0 0 734 975" width="734px" zoomAndPan="magnify"><defs/><g><!--class Account--><g id="elem_Account"><rect codeLine="7" fill="#F1F1F1" height="42.2969" id="Account" rx="2.5" ry="2.5" style="stroke:#181818;stroke-width:0.5;" width="65" x="138" y="7"/><text fill="#000000" font-family="sans-serif" font-size="14" lengthAdjust="spacing" textLength="59" x="141" y="24.9951">Account</text><line style="stroke:#181818;stroke-width:0.5;" x1="139" x2="202" y1="33.2969" y2="33.2969"/><line style="stroke:#181818;stroke-width:0.5;" x1="139" x2="202" y1="41.2969" y2="41.2969"/></g><!--class Role--><g id="elem_Role"><rect codeLine="8" fill="#F1F1F1" height="42.2969" id="Role" rx="2.5" ry="2.5" style="stroke:#181818;stroke-width:0.5;" width="38" x="88.5" y="126"/><text fill="#000000" font-family="sans-serif" font-size="14" lengthAdjust="spacing" textLength="32" x="91.5" y="143.9951">Role</text><line style="stroke:#181818;stroke-width:0.5;" x1="89.5" x2="125.5" y1="152.2969" y2="152.2969"/><line style="stroke:#181818;stroke-width:0.5;" x1="89.5" x2="125.5" y1="160.2969" y2="160.2969"/></g><!--class Client--><g id="elem_Client"><rect codeLine="9" fill="#F1F1F1" height="42.2969" id="Client" rx="2.5" ry="2.5" style="stroke:#181818;stroke-width:0.5;" width="49" x="209" y="126"/><text fill="#000000" font-family="sans-serif" font-size="14" lengthAdjust="spacing" textLength="43" x="212" y="143.9951">Client</text><line style="stroke:#181818;stroke-width:0.5;" x1="210" x2="257" y1="152.2969" y2="152.2969"/><line style="stroke:#181818;stroke-width:0.5;" x1="210" x2="257" y1="160.2969" y2="160.2969"/></g><!--class BillingSettings--><g id="elem_BillingSettings"><rect codeLine="10" fill="#F1F1F1" height="42.2969" id="BillingSettings" rx="2.5" ry="2.5" style="stroke:#181818;stroke-width:0.5;" width="111" x="142" y="277.5"/><text fill="#000000" font-family="sans-serif" font-size="14" lengthAdjust="spacing" textLength="105" x="145" y="295.4951">BillingSettings</text><line style="stroke:#181818;stroke-width:0.5;" x1="143" x2="252" y1="303.7969" y2="303.7969"/><line style="stroke:#181818;stroke-width:0.5;" x1="143" x2="252" y1="311.7969" y2="311.7969"/></g><!--class PortType--><g id="elem_PortType"><rect codeLine="11" fill="#F1F1F1" height="42.2969" id="PortType" rx="2.5" ry="2.5" style="stroke:#181818;stroke-width:0.5;" width="73" x="175" y="926"/><text fill="#000000" font-family="sans-serif" font-size="14" lengthAdjust="spacing" textLength="67" x="178" y="943.9951">PortType</text><line style="stroke:#181818;stroke-width:0.5;" x1="176" x2="247" y1="952.2969" y2="952.2969"/><line style="stroke:#181818;stroke-width:0.5;" x1="176" x2="247" y1="960.2969" y2="960.2969"/></g><!--class ElectricCharger--><g id="elem_ElectricCharger"><rect codeLine="12" fill="#F1F1F1" height="42.2969" id="ElectricCharger" rx="2.5" ry="2.5" style="stroke:#181818;stroke-width:0.5;" width="118" x="348.5" y="655"/><text fill="#000000" font-family="sans-serif" font-size="14" lengthAdjust="spacing" textLength="112" x="351.5" y="672.9951">ElectricCharger</text><line style="stroke:#181818;stroke-width:0.5;" x1="349.5" x2="465.5" y1="681.2969" y2="681.2969"/><line style="stroke:#181818;stroke-width:0.5;" x1="349.5" x2="465.5" y1="689.2969" y2="689.2969"/></g><!--class Vehicle--><g id="elem_Vehicle"><rect codeLine="15" fill="#F1F1F1" height="74.8906" id="Vehicle" rx="2.5" ry="2.5" style="stroke:#181818;stroke-width:0.5;" width="155" x="7" y="382"/><text fill="#000000" font-family="sans-serif" font-size="14" lengthAdjust="spacing" textLength="53" x="58" y="399.9951">Vehicle</text><line style="stroke:#181818;stroke-width:0.5;" x1="8" x2="161" y1="408.2969" y2="408.2969"/><ellipse cx="18" cy="421.9453" fill="#000000" rx="3" ry="3" style="stroke:#000000;stroke-width:1.0;"/><text fill="#000000" font-family="sans-serif" font-size="14" lengthAdjust="spacing" textLength="100" x="27" y="425.292">model : string</text><ellipse cx="18" cy="438.2422" fill="#000000" rx="3" ry="3" style="stroke:#000000;stroke-width:1.0;"/><text fill="#000000" font-family="sans-serif" font-size="14" lengthAdjust="spacing" textLength="129" x="27" y="441.5889">kind : VehicleKind</text><line style="stroke:#181818;stroke-width:0.5;" x1="8" x2="161" y1="448.8906" y2="448.8906"/></g><!--class Parking--><g id="elem_Parking"><rect codeLine="20" fill="#F1F1F1" height="91.1875" id="Parking" rx="2.5" ry="2.5" style="stroke:#181818;stroke-width:0.5;" width="126" x="288.5" y="253"/><text fill="#000000" font-family="sans-serif" font-size="14" lengthAdjust="spacing" textLength="54" x="324.5" y="270.9951">Parking</text><line style="stroke:#181818;stroke-width:0.5;" x1="289.5" x2="413.5" y1="279.2969" y2="279.2969"/><ellipse cx="299.5" cy="292.9453" fill="#000000" rx="3" ry="3" style="stroke:#000000;stroke-width:1.0;"/><text fill="#000000" font-family="sans-serif" font-size="14" lengthAdjust="spacing" textLength="95" x="308.5" y="296.292">name : string</text><ellipse cx="299.5" cy="309.2422" fill="#000000" rx="3" ry="3" style="stroke:#000000;stroke-width:1.0;"/><text fill="#000000" font-family="sans-serif" font-size="14" lengthAdjust="spacing" textLength="97" x="308.5" y="312.5889">address : json</text><text fill="#000000" font-family="sans-serif" font-size="14" lengthAdjust="spacing" textLength="100" x="308.5" y="328.8857">location : json</text><line style="stroke:#181818;stroke-width:0.5;" x1="289.5" x2="413.5" y1="336.1875" y2="336.1875"/></g><!--class Spot--><g id="elem_Spot"><rect codeLine="26" fill="#F1F1F1" height="91.1875" id="Spot" rx="2.5" ry="2.5" style="stroke:#181818;stroke-width:0.5;" width="214" x="416.5" y="487"/><text fill="#000000" font-family="sans-serif" font-size="14" lengthAdjust="spacing" textLength="35" x="506" y="504.9951">Spot</text><line style="stroke:#181818;stroke-width:0.5;" x1="417.5" x2="629.5" y1="513.2969" y2="513.2969"/><text fill="#000000" font-family="sans-serif" font-size="14" lengthAdjust="spacing" textLength="108" x="436.5" y="530.292">available : bool</text><ellipse cx="427.5" cy="543.2422" fill="#000000" rx="3" ry="3" style="stroke:#000000;stroke-width:1.0;"/><text fill="#000000" font-family="sans-serif" font-size="14" lengthAdjust="spacing" textLength="188" x="436.5" y="546.5889">suitableFor : VehicleKind[]</text><ellipse cx="427.5" cy="559.5391" fill="#000000" rx="3" ry="3" style="stroke:#000000;stroke-width:1.0;"/><text fill="#000000" font-family="sans-serif" font-size="14" lengthAdjust="spacing" textLength="100" x="436.5" y="562.8857">cost : number</text><line style="stroke:#181818;stroke-width:0.5;" x1="417.5" x2="629.5" y1="570.1875" y2="570.1875"/></g><!--class ChargingPort--><g id="elem_ChargingPort"><rect codeLine="32" fill="#F1F1F1" height="74.8906" id="ChargingPort" rx="2.5" ry="2.5" style="stroke:#181818;stroke-width:0.5;" width="134" x="436.5" y="774"/><text fill="#000000" font-family="sans-serif" font-size="14" lengthAdjust="spacing" textLength="95" x="456" y="791.9951">ChargingPort</text><line style="stroke:#181818;stroke-width:0.5;" x1="437.5" x2="569.5" y1="800.2969" y2="800.2969"/><ellipse cx="447.5" cy="813.9453" fill="#000000" rx="3" ry="3" style="stroke:#000000;stroke-width:1.0;"/><text fill="#000000" font-family="sans-serif" font-size="14" lengthAdjust="spacing" textLength="100" x="456.5" y="817.292">cost : number</text><text fill="#000000" font-family="sans-serif" font-size="14" lengthAdjust="spacing" textLength="108" x="456.5" y="833.5889">available : bool</text><line style="stroke:#181818;stroke-width:0.5;" x1="437.5" x2="569.5" y1="840.8906" y2="840.8906"/></g><!--class Rent--><g id="elem_Rent"><rect codeLine="37" fill="#F1F1F1" height="107.4844" id="Rent" rx="2.5" ry="2.5" style="stroke:#181818;stroke-width:0.5;" width="198" x="468.5" y="245"/><text fill="#000000" font-family="sans-serif" font-size="14" lengthAdjust="spacing" textLength="35" x="550" y="262.9951">Rent</text><line style="stroke:#181818;stroke-width:0.5;" x1="469.5" x2="665.5" y1="271.2969" y2="271.2969"/><ellipse cx="479.5" cy="284.9453" fill="#000000" rx="3" ry="3" style="stroke:#000000;stroke-width:1.0;"/><text fill="#000000" font-family="sans-serif" font-size="14" lengthAdjust="spacing" textLength="161" x="488.5" y="288.292">started : timestamptz</text><ellipse cx="479.5" cy="301.2422" fill="#000000" rx="3" ry="3" style="stroke:#000000;stroke-width:1.0;"/><text fill="#000000" font-family="sans-serif" font-size="14" lengthAdjust="spacing" textLength="172" x="488.5" y="304.5889">freezedCostRates : json</text><text fill="#000000" font-family="sans-serif" font-size="14" lengthAdjust="spacing" textLength="165" x="488.5" y="320.8857">finished : timestamptz</text><text fill="#000000" font-family="sans-serif" font-size="14" lengthAdjust="spacing" textLength="140" x="488.5" y="337.1826">totalPrice : number</text><line style="stroke:#181818;stroke-width:0.5;" x1="469.5" x2="665.5" y1="344.4844" y2="344.4844"/></g><!--class Payment--><g id="elem_Payment"><rect codeLine="44" fill="#F1F1F1" height="74.8906" id="Payment" rx="2.5" ry="2.5" style="stroke:#181818;stroke-width:0.5;" width="172" x="189.5" y="495"/><text fill="#000000" font-family="sans-serif" font-size="14" lengthAdjust="spacing" textLength="64" x="243.5" y="512.9951">Payment</text><line style="stroke:#181818;stroke-width:0.5;" x1="190.5" x2="360.5" y1="521.2969" y2="521.2969"/><ellipse cx="200.5" cy="534.9453" fill="#000000" rx="3" ry="3" style="stroke:#000000;stroke-width:1.0;"/><text fill="#000000" font-family="sans-serif" font-size="14" lengthAdjust="spacing" textLength="124" x="209.5" y="538.292">amount : number</text><ellipse cx="200.5" cy="551.2422" fill="#000000" rx="3" ry="3" style="stroke:#000000;stroke-width:1.0;"/><text fill="#000000" font-family="sans-serif" font-size="14" lengthAdjust="spacing" textLength="146" x="209.5" y="554.5889">when : timestamptz</text><line style="stroke:#181818;stroke-width:0.5;" x1="190.5" x2="360.5" y1="561.8906" y2="561.8906"/></g><!--link Account to Role--><g id="link_Account_Role"><path codeLine="49" d="M131.165,49.707 C120.548,57.385 110.381,67.167 104.5,79 C98.5913,90.889 98.5413,105.479 100.3032,118.005 " fill="none" id="Account-Role" style="stroke:#181818;stroke-width:1.0;stroke-dasharray:7.0,7.0;"/><line style="stroke:#181818;stroke-width:1.0;" x1="131.1818" x2="134.4272" y1="49.6948" y2="40.2361"/><line style="stroke:#181818;stroke-width:1.0;" x1="131.1818" x2="141.1708" y1="49.6948" y2="50.1619"/><line style="stroke:#181818;stroke-width:1.0;" x1="131.1818" x2="137.799" y1="49.6948" y2="45.199"/><line style="stroke:#181818;stroke-width:1.0;" x1="127.2796" x2="131.7753" y1="47.5101" y2="54.1274"/><line style="stroke:#181818;stroke-width:1.0;" x1="100.3036" x2="107.5899" y1="118.0092" y2="124.8582"/><line style="stroke:#181818;stroke-width:1.0;" x1="100.3036" x2="95.7687" y1="118.0092" y2="126.9218"/><line style="stroke:#181818;stroke-width:1.0;" x1="100.3036" x2="101.6793" y1="118.0092" y2="125.89"/><line style="stroke:#181818;stroke-width:1.0;" x1="103.9001" x2="96.0193" y1="115.3511" y2="116.7268"/><text fill="#000000" font-family="sans-serif" font-size="13" lengthAdjust="spacing" textLength="84" x="105.5" y="92.0669">has assigned</text></g><!--link Account to Client--><g id="link_Account_Client"><path codeLine="50" d="M185.187,56.275 C195.287,75.033 208.649,99.849 218.761,118.627 " fill="none" id="Account-Client" style="stroke:#181818;stroke-width:1.0;"/><line style="stroke:#181818;stroke-width:1.0;" x1="179.7048" x2="186.7484" y1="54.5314" y2="50.7382"/><line style="stroke:#181818;stroke-width:1.0;" x1="181.1273" x2="188.1708" y1="57.1727" y2="53.3795"/><line style="stroke:#181818;stroke-width:1.0;" x1="185.1232" x2="181.33" y1="56.1565" y2="49.113"/><line style="stroke:#181818;stroke-width:1.0;" x1="217.3851" x2="222.6" y1="116.0727" y2="125.758"/><ellipse cx="217.3851" cy="116.0727" fill="none" rx="4" ry="4" style="stroke:#181818;stroke-width:1.0;"/><line style="stroke:#181818;stroke-width:1.0;" x1="224.2256" x2="217.1818" y1="120.3398" y2="124.1324"/><text fill="#000000" font-family="sans-serif" font-size="13" lengthAdjust="spacing" textLength="82" x="207.5" y="92.0669">might be the</text></g><!--link Client to BillingSettings--><g id="link_Client_BillingSettings"><path codeLine="51" d="M226.756,176.006 C220.333,202.679 210.716,242.616 204.281,269.34 " fill="none" id="Client-BillingSettings" style="stroke:#181818;stroke-width:1.0;"/><line style="stroke:#181818;stroke-width:1.0;" x1="223.8197" x2="231.5973" y1="171.1143" y2="172.9873"/><line style="stroke:#181818;stroke-width:1.0;" x1="223.1173" x2="230.895" y1="174.031" y2="175.9039"/><line style="stroke:#181818;stroke-width:1.0;" x1="226.772" x2="228.645" y1="175.9397" y2="168.162"/><line style="stroke:#181818;stroke-width:1.0;" x1="204.266" x2="208.2262" y1="269.4023" y2="278.5847"/><line style="stroke:#181818;stroke-width:1.0;" x1="204.266" x2="196.5598" y1="269.4023" y2="275.7753"/><line style="stroke:#181818;stroke-width:1.0;" x1="204.266" x2="202.393" y1="269.4023" y2="277.18"/><line style="stroke:#181818;stroke-width:1.0;" x1="208.6231" x2="200.8454" y1="268.3944" y2="266.5214"/><text fill="#000000" font-family="sans-serif" font-size="13" lengthAdjust="spacing" textLength="23" x="222.5" y="211.0669">has</text></g><!--link Client to Vehicle--><g id="link_Client_Vehicle"><path codeLine="52" d="M200.66,156.128 C165.686,165.495 113.706,181.703 101.5,198 C63.5332,248.694 67.4367,325.61 75.0152,373.906 " fill="none" id="Client-Vehicle" style="stroke:#181818;stroke-width:1.0;stroke-dasharray:7.0,7.0;"/><line style="stroke:#181818;stroke-width:1.0;" x1="200.978" x2="207.1893" y1="156.0443" y2="148.2072"/><line style="stroke:#181818;stroke-width:1.0;" x1="200.978" x2="210.2407" y1="156.0443" y2="159.8128"/><line style="stroke:#181818;stroke-width:1.0;" x1="200.978" x2="208.715" y1="156.0443" y2="154.01"/><ellipse cx="195.1752" cy="157.57" fill="none" rx="4" ry="4" style="stroke:#181818;stroke-width:1.0;"/><line style="stroke:#181818;stroke-width:1.0;" x1="79.6493" x2="71.7578" y1="377.3878" y2="378.7007"/><line style="stroke:#181818;stroke-width:1.0;" x1="79.157" x2="71.2655" y1="374.4285" y2="375.7413"/><line style="stroke:#181818;stroke-width:1.0;" x1="75.0471" x2="76.36" y1="374.0985" y2="381.99"/><text fill="#000000" font-family="sans-serif" font-size="13" lengthAdjust="spacing" textLength="107" x="102.5" y="211.0669">owns a model of</text></g><!--link Vehicle to PortType--><g id="link_Vehicle_PortType"><path codeLine="53" d="M88.3813,464.257 C91.5478,503.751 95.5,563.468 95.5,615.5 C95.5,615.5 95.5,615.5 95.5,812.5 C95.5,859.76 137.434,898.4503 170.877,921.7914 " fill="none" id="Vehicle-PortType" style="stroke:#181818;stroke-width:1.0;stroke-dasharray:7.0,7.0;"/><line style="stroke:#181818;stroke-width:1.0;" x1="84.1385" x2="92.1121" y1="461.4357" y2="460.7859"/><line style="stroke:#181818;stroke-width:1.0;" x1="84.3822" x2="92.3558" y1="464.4258" y2="463.776"/><line style="stroke:#181818;stroke-width:1.0;" x1="88.4502" x2="87.8004" y1="465.0976" y2="457.124"/><line style="stroke:#181818;stroke-width:1.0;" x1="175.9555" x2="171.4523" y1="920.412" y2="927.0242"/><line style="stroke:#181818;stroke-width:1.0;" x1="173.4759" x2="168.9727" y1="918.7233" y2="925.3355"/><line style="stroke:#181818;stroke-width:1.0;" x1="170.3978" x2="177.01" y1="921.4665" y2="925.9697"/><text fill="#000000" font-family="sans-serif" font-size="13" lengthAdjust="spacing" textLength="27" x="96.5" y="680.5669">with</text></g><!--link Rent to Spot--><g id="link_Rent_Spot"><path codeLine="55" d="M562.447,360.191 C559.322,389.639 554.533,425.398 547.5,457 C545.896,464.208 543.891,471.713 541.728,479.064 " fill="none" id="Rent-Spot" style="stroke:#181818;stroke-width:1.0;stroke-dasharray:7.0,7.0;"/><line style="stroke:#181818;stroke-width:1.0;" x1="562.4641" x2="557.3156" y1="360.0189" y2="351.4461"/><line style="stroke:#181818;stroke-width:1.0;" x1="562.4641" x2="569.2524" y1="360.0189" y2="352.6759"/><line style="stroke:#181818;stroke-width:1.0;" x1="562.4641" x2="563.284" y1="360.0189" y2="352.061"/><ellipse cx="561.8491" cy="365.9873" fill="none" rx="4" ry="4" style="stroke:#181818;stroke-width:1.0;"/><line style="stroke:#181818;stroke-width:1.0;" x1="544.3205" x2="536.6655" y1="484.2935" y2="481.9695"/><line style="stroke:#181818;stroke-width:1.0;" x1="545.192" x2="537.5371" y1="481.4229" y2="479.0989"/><line style="stroke:#181818;stroke-width:1.0;" x1="541.6551" x2="539.331" y1="479.304" y2="486.959"/><text fill="#000000" font-family="sans-serif" font-size="13" lengthAdjust="spacing" textLength="82" x="560.5" y="424.0669">the available</text></g><!--link Rent to ChargingPort--><g id="link_Rent_ChargingPort"><path codeLine="56" d="M637.885,358.644 C643.334,365.955 648.049,373.774 651.5,382 C657.462,396.212 653.295,547.394 648.5,578 C639.966,632.465 641.269,649.376 613.5,697 C598.089,723.43 575.237,748.367 554.348,768.098 " fill="none" id="Rent-ChargingPort" style="stroke:#181818;stroke-width:1.0;stroke-dasharray:7.0,7.0;"/><line style="stroke:#181818;stroke-width:1.0;" x1="637.6531" x2="627.9846" y1="358.3501" y2="355.7966"/><line style="stroke:#181818;stroke-width:1.0;" x1="637.6531" x2="637.3974" y1="358.3501" y2="348.3534"/><line style="stroke:#181818;stroke-width:1.0;" x1="637.6531" x2="632.691" y1="358.3501" y2="352.075"/><ellipse cx="641.3747" cy="363.0565" fill="none" rx="4" ry="4" style="stroke:#181818;stroke-width:1.0;"/><line style="stroke:#181818;stroke-width:1.0;" x1="553.8821" x2="548.4362" y1="773.9922" y2="768.1319"/><line style="stroke:#181818;stroke-width:1.0;" x1="556.0796" x2="550.6337" y1="771.9499" y2="766.0897"/><line style="stroke:#181818;stroke-width:1.0;" x1="554.0892" x2="548.229" y1="768.3391" y2="773.785"/><text fill="#000000" font-family="sans-serif" font-size="13" lengthAdjust="spacing" textLength="82" x="644.5" y="621.0669">the available</text></g><!--link Client to Rent--><g id="link_Client_Rent"><path codeLine="57" d="M265.39,162.274 C310.024,182.252 393.268,219.513 461.09,249.87 " fill="none" id="Client-Rent" style="stroke:#181818;stroke-width:1.0;"/><line style="stroke:#181818;stroke-width:1.0;" x1="260.0765" x2="263.3452" y1="164.2782" y2="156.9765"/><line style="stroke:#181818;stroke-width:1.0;" x1="262.8147" x2="266.0834" y1="165.504" y2="158.2023"/><line style="stroke:#181818;stroke-width:1.0;" x1="265.3617" x2="258.06" y1="162.2617" y2="158.993"/><line style="stroke:#181818;stroke-width:1.0;" x1="461.1373" x2="470.8905" y1="249.8913" y2="247.6837"/><line style="stroke:#181818;stroke-width:1.0;" x1="461.1373" x2="465.9875" y1="249.8913" y2="258.6363"/><line style="stroke:#181818;stroke-width:1.0;" x1="461.1373" x2="468.439" y1="249.8913" y2="253.16"/><ellipse cx="455.6609" cy="247.4398" fill="none" rx="4" ry="4" style="stroke:#181818;stroke-width:1.0;"/><text fill="#000000" font-family="sans-serif" font-size="13" lengthAdjust="spacing" textLength="23" x="382.5" y="211.0669">can</text></g><!--link BillingSettings to Payment--><g id="link_BillingSettings_Payment"><path codeLine="58" d="M191.599,327.837 C186.195,360.435 181.49,414.876 199.5,457 C204.446,468.567 212.136,479.251 220.762,488.704 " fill="none" id="BillingSettings-Payment" style="stroke:#181818;stroke-width:1.0;"/><line style="stroke:#181818;stroke-width:1.0;" x1="188.412" x2="196.2896" y1="322.8876" y2="324.282"/><line style="stroke:#181818;stroke-width:1.0;" x1="187.8892" x2="195.7667" y1="325.8417" y2="327.236"/><line style="stroke:#181818;stroke-width:1.0;" x1="191.6536" x2="193.048" y1="327.5235" y2="319.646"/><line style="stroke:#181818;stroke-width:1.0;" x1="221.0082" x2="230.8761" y1="488.9605" y2="490.5807"/><line style="stroke:#181818;stroke-width:1.0;" x1="221.0082" x2="222.2159" y1="488.9605" y2="498.8873"/><line style="stroke:#181818;stroke-width:1.0;" x1="221.0082" x2="226.546" y1="488.9605" y2="494.734"/><ellipse cx="216.8549" cy="484.6304" fill="none" rx="4" ry="4" style="stroke:#181818;stroke-width:1.0;"/><text fill="#000000" font-family="sans-serif" font-size="13" lengthAdjust="spacing" textLength="97" x="200.5" y="424.0669">will be used for</text></g><!--link Rent to Payment--><g id="link_Rent_Payment"><path codeLine="59" d="M460.94,337.606 C438.601,349.261 416.648,363.915 399.5,382 C374.565,408.298 389.337,428.077 367.5,457 C358.618,468.764 347.493,479.783 336.077,489.552 " fill="none" id="Rent-Payment" style="stroke:#181818;stroke-width:1.0;"/><line style="stroke:#181818;stroke-width:1.0;" x1="462.8259" x2="466.4419" y1="332.1659" y2="339.3021"/><line style="stroke:#181818;stroke-width:1.0;" x1="460.1499" x2="463.7658" y1="333.5219" y2="340.658"/><line style="stroke:#181818;stroke-width:1.0;" x1="461.0658" x2="468.202" y1="337.5419" y2="333.926"/><line style="stroke:#181818;stroke-width:1.0;" x1="335.8658" x2="333.5573" y1="489.7289" y2="499.4588"/><line style="stroke:#181818;stroke-width:1.0;" x1="335.8658" x2="325.8787" y1="489.7289" y2="490.2372"/><line style="stroke:#181818;stroke-width:1.0;" x1="335.8658" x2="329.718" y1="489.7289" y2="494.848"/><ellipse cx="340.4766" cy="485.8896" fill="none" rx="4" ry="4" style="stroke:#181818;stroke-width:1.0;"/><text fill="#000000" font-family="sans-serif" font-size="13" lengthAdjust="spacing" textLength="138" x="400.5" y="424.0669">must be finished with</text></g><!--link Parking to Spot--><g id="link_Parking_Spot"><path codeLine="61" d="M331.485,351.783 C322.466,384.659 317.887,426.478 338.5,457 C347.874,470.88 376.583,484.909 408.675,496.992 " fill="none" id="Parking-Spot" style="stroke:#181818;stroke-width:1.0;"/><line style="stroke:#181818;stroke-width:1.0;" x1="328.7719" x2="336.4543" y1="346.7843" y2="349.0161"/><line style="stroke:#181818;stroke-width:1.0;" x1="327.935" x2="335.6175" y1="349.6653" y2="351.897"/><line style="stroke:#181818;stroke-width:1.0;" x1="331.4973" x2="333.729" y1="351.7414" y2="344.059"/><line style="stroke:#181818;stroke-width:1.0;" x1="408.9453" x2="418.5274" y1="497.0904" y2="494.2297"/><line style="stroke:#181818;stroke-width:1.0;" x1="408.9453" x2="414.3746" y1="497.0904" y2="505.4883"/><line style="stroke:#181818;stroke-width:1.0;" x1="408.9453" x2="416.451" y1="497.0904" y2="499.859"/><line style="stroke:#181818;stroke-width:1.0;" x1="408.4532" x2="405.6846" y1="492.6455" y2="500.1511"/><text fill="#000000" font-family="sans-serif" font-size="13" lengthAdjust="spacing" textLength="23" x="339.5" y="424.0669">has</text></g><!--link Spot to ElectricCharger--><g id="link_Spot_ElectricCharger"><path codeLine="62" d="M438.952,583.564 C431.129,590.934 424.066,599.086 418.5,608 C411.33,619.482 408.379,634.146 407.305,646.826 " fill="none" id="Spot-ElectricCharger" style="stroke:#181818;stroke-width:1.0;stroke-dasharray:7.0,7.0;"/><line style="stroke:#181818;stroke-width:1.0;" x1="439.4216" x2="444.76" y1="577.771" y2="583.7294"/><line style="stroke:#181818;stroke-width:1.0;" x1="437.1873" x2="442.5256" y1="579.7729" y2="585.7312"/><line style="stroke:#181818;stroke-width:1.0;" x1="439.1117" x2="445.07" y1="583.4194" y2="578.081"/><line style="stroke:#181818;stroke-width:1.0;" x1="407.305" x2="412.8351" y1="646.8322" y2="655.164"/><line style="stroke:#181818;stroke-width:1.0;" x1="407.305" x2="400.8549" y1="646.8322" y2="654.474"/><line style="stroke:#181818;stroke-width:1.0;" x1="407.305" x2="406.845" y1="646.8322" y2="654.819"/><line style="stroke:#181818;stroke-width:1.0;" x1="411.4134" x2="403.4266" y1="645.0655" y2="644.6056"/><text fill="#000000" font-family="sans-serif" font-size="13" lengthAdjust="spacing" textLength="90" x="419.5" y="621.0669">has reachable</text></g><!--link Spot to ChargingPort--><g id="link_Spot_ChargingPort"><path codeLine="63" d="M519.694,586.21 C515.95,638.065 510.295,716.39 506.754,765.432 " fill="none" id="Spot-ChargingPort" style="stroke:#181818;stroke-width:1.0;stroke-dasharray:7.0,7.0;"/><line style="stroke:#181818;stroke-width:1.0;" x1="516.0088" x2="523.988" y1="581.706" y2="582.2832"/><line style="stroke:#181818;stroke-width:1.0;" x1="515.7924" x2="523.7715" y1="584.6982" y2="585.2753"/><line style="stroke:#181818;stroke-width:1.0;" x1="519.7098" x2="520.287" y1="585.9842" y2="578.005"/><line style="stroke:#181818;stroke-width:1.0;" x1="506.7382" x2="512.1454" y1="765.6588" y2="774.0709"/><line style="stroke:#181818;stroke-width:1.0;" x1="506.7382" x2="500.1766" y1="765.6588" y2="773.2051"/><line style="stroke:#181818;stroke-width:1.0;" x1="506.7382" x2="506.161" y1="765.6588" y2="773.638"/><line style="stroke:#181818;stroke-width:1.0;" x1="510.8721" x2="502.8929" y1="763.9527" y2="763.3755"/><text fill="#000000" font-family="sans-serif" font-size="13" lengthAdjust="spacing" textLength="90" x="514.5" y="680.5669">has reachable</text></g><!--link ElectricCharger to ChargingPort--><g id="link_ElectricCharger_ChargingPort"><path codeLine="64" d="M426.762,703.787 C439.819,721.943 457.365,746.343 472.384,767.229 " fill="none" id="ElectricCharger-ChargingPort" style="stroke:#181818;stroke-width:1.0;"/><line style="stroke:#181818;stroke-width:1.0;" x1="421.1686" x2="427.6629" y1="702.8589" y2="698.1874"/><line style="stroke:#181818;stroke-width:1.0;" x1="422.9204" x2="429.4148" y1="705.2943" y2="700.6228"/><line style="stroke:#181818;stroke-width:1.0;" x1="426.7515" x2="422.08" y1="703.7704" y2="697.276"/><line style="stroke:#181818;stroke-width:1.0;" x1="472.4914" x2="482.0333" y1="767.3789" y2="770.3711"/><line style="stroke:#181818;stroke-width:1.0;" x1="472.4914" x2="472.2907" y1="767.3789" y2="777.3769"/><line style="stroke:#181818;stroke-width:1.0;" x1="472.4914" x2="477.162" y1="767.3789" y2="773.874"/><line style="stroke:#181818;stroke-width:1.0;" x1="474.5713" x2="468.0763" y1="763.4199" y2="768.0904"/><text fill="#000000" font-family="sans-serif" font-size="13" lengthAdjust="spacing" textLength="27" x="456.5" y="740.0669">with</text></g><!--link ChargingPort to PortType--><g id="link_ChargingPort_PortType"><path codeLine="65" d="M429.54,846.314 C374.345,871.5484 300.82,905.1635 254.825,926.1919 " fill="none" id="ChargingPort-PortType" style="stroke:#181818;stroke-width:1.0;stroke-dasharray:7.0,7.0;"/><line style="stroke:#181818;stroke-width:1.0;" x1="430.8421" x2="434.1681" y1="841.3201" y2="848.5959"/><line style="stroke:#181818;stroke-width:1.0;" x1="428.1136" x2="431.4397" y1="842.5674" y2="849.8432"/><line style="stroke:#181818;stroke-width:1.0;" x1="428.8672" x2="436.143" y1="846.621" y2="843.295"/><line style="stroke:#181818;stroke-width:1.0;" x1="253.5462" x2="250.219" y1="931.1747" y2="923.8995"/><line style="stroke:#181818;stroke-width:1.0;" x1="256.2745" x2="252.9473" y1="929.927" y2="922.6518"/><line style="stroke:#181818;stroke-width:1.0;" x1="255.5203" x2="248.245" y1="925.8735" y2="929.2007"/><text fill="#000000" font-family="sans-serif" font-size="13" lengthAdjust="spacing" textLength="27" x="358.5" y="892.0669">is of</text></g><!--SRC=[RLFBRjim4BppAnQwv04a7-1RQwINNWodo2NeWQRM4XEIQv1KNCVoltT9Ix8a-oHnTdRsVGUrBX5YZH1s5E7-vS557GyYmqfxPL28Ev1Vf4lOUTeOj07sEjOWNMMm1ELf7s2B667JHB3o4mEKMbPUMhXld29hqKLm-2-2qOwZ4JG17rWsV6gtaucO3F6mGo0VQn82SnhmGobgsFbuwf4r6HmzbqRZnFvJ6zQgNZ56_eIHPSNIVrA82_HYK4MlrRAMlaAVB4FeDworIh44m2DOAj700WBJNPKXphrafEFzvfSu3TuhwTbUTTvEMfmwoxBq60A37u4SGuQKZ9fSZroaNjDWaexyajf8dW1pDaGc2uL6nuJz8ZzDvlrljYiAaGskiHlq8zLSCcUJkj9bEQNUY7VnNkUcdnE8qaTCdOZQ8h_iBdvdozOZVcEvPDcrZ3WgTgkT3lKDfqXHcXLF16_bl987UmaiRLwDKSAFiA_HpKJPlT-YK_lyt1xFAxI0efO1P0YwSbWM0wbjdvwexHUBQLPNDUzslf92T7XYiTHysnR0eZtdH1ok7HQ9fMZlE6ItJBGjH6zhsqmTLdIHJqo8zKWdxm6Bf6CTHbDCA9EXNbD7kTFnFCC5AEd4l8oEqVURbVRCI3tWmorXIxwBUqsqJSZD6aQS2Yc4w0-YQrnNJEfM_ctFevaVP3SbZrBLvnh6x7cvC-fSh0izyygDdc3NmoXqIEFw3m00]--></g></svg>