<svg aria-labelledby="chart-title-mermaid-svg chart-desc-mermaid-svg" role="img" viewBox="0 0 880.1813354492188 1210" style="max-width: 880.1813354492188px;" xmlns="http://www.w3.org/2000/svg" width="100%" id="mermaid-svg"><title id="chart-title-mermaid-svg"></title><desc id="chart-desc-mermaid-svg"></desc><style>#mermaid-svg {font-family:"trebuchet ms",verdana,arial,sans-serif;font-size:16px;fill:#333;}#mermaid-svg .error-icon{fill:#552222;}#mermaid-svg .error-text{fill:#552222;stroke:#552222;}#mermaid-svg .edge-thickness-normal{stroke-width:2px;}#mermaid-svg .edge-thickness-thick{stroke-width:3.5px;}#mermaid-svg .edge-pattern-solid{stroke-dasharray:0;}#mermaid-svg .edge-pattern-dashed{stroke-dasharray:3;}#mermaid-svg .edge-pattern-dotted{stroke-dasharray:2;}#mermaid-svg .marker{fill:#333333;stroke:#333333;}#mermaid-svg .marker.cross{stroke:#333333;}#mermaid-svg svg{font-family:"trebuchet ms",verdana,arial,sans-serif;font-size:16px;}#mermaid-svg .entityBox{fill:#ECECFF;stroke:#9370DB;}#mermaid-svg .attributeBoxOdd{fill:#ffffff;stroke:#9370DB;}#mermaid-svg .attributeBoxEven{fill:#f2f2f2;stroke:#9370DB;}#mermaid-svg .relationshipLabelBox{fill:hsl(80, 100%, 96.2745098039%);opacity:0.7;background-color:hsl(80, 100%, 96.2745098039%);}#mermaid-svg .relationshipLabelBox rect{opacity:0.5;}#mermaid-svg .relationshipLine{stroke:#333333;}#mermaid-svg :root{--mermaid-font-family:"trebuchet ms",verdana,arial,sans-serif;}</style><g></g><defs><marker orient="auto" markerHeight="18" markerWidth="18" refY="9" refX="0" id="ONLY_ONE_START"><path d="M9,0 L9,18 M15,0 L15,18" fill="none" stroke="gray"></path></marker></defs><defs><marker orient="auto" markerHeight="18" markerWidth="18" refY="9" refX="18" id="ONLY_ONE_END"><path d="M3,0 L3,18 M9,0 L9,18" fill="none" stroke="gray"></path></marker></defs><defs><marker orient="auto" markerHeight="18" markerWidth="30" refY="9" refX="0" id="ZERO_OR_ONE_START"><circle r="6" cy="9" cx="21" fill="white" stroke="gray"></circle><path d="M9,0 L9,18" fill="none" stroke="gray"></path></marker></defs><defs><marker orient="auto" markerHeight="18" markerWidth="30" refY="9" refX="30" id="ZERO_OR_ONE_END"><circle r="6" cy="9" cx="9" fill="white" stroke="gray"></circle><path d="M21,0 L21,18" fill="none" stroke="gray"></path></marker></defs><defs><marker orient="auto" markerHeight="36" markerWidth="45" refY="18" refX="18" id="ONE_OR_MORE_START"><path d="M0,18 Q 18,0 36,18 Q 18,36 0,18 M42,9 L42,27" fill="none" stroke="gray"></path></marker></defs><defs><marker orient="auto" markerHeight="36" markerWidth="45" refY="18" refX="27" id="ONE_OR_MORE_END"><path d="M3,9 L3,27 M9,18 Q27,0 45,18 Q27,36 9,18" fill="none" stroke="gray"></path></marker></defs><defs><marker orient="auto" markerHeight="36" markerWidth="57" refY="18" refX="18" id="ZERO_OR_MORE_START"><circle r="6" cy="18" cx="48" fill="white" stroke="gray"></circle><path d="M0,18 Q18,0 36,18 Q18,36 0,18" fill="none" stroke="gray"></path></marker></defs><defs><marker orient="auto" markerHeight="36" markerWidth="57" refY="18" refX="39" id="ZERO_OR_MORE_END"><circle r="6" cy="18" cx="9" fill="white" stroke="gray"></circle><path d="M21,18 Q39,0 57,18 Q39,36 21,18" fill="none" stroke="gray"></path></marker></defs><path marker-start="url(#ONE_OR_MORE_START)" marker-end="url(#ONE_OR_MORE_END)" stroke-dasharray="8,8" fill="none" stroke="gray" d="M127.14285714285714,95L117.6190476190476,103.33333333333333C108.09523809523809,111.66666666666667,89.04761904761904,128.33333333333334,79.52380952380952,145C70,161.66666666666666,70,178.33333333333334,70,186.66666666666666L70,195" class="er relationshipLine"></path><path marker-start="url(#ONLY_ONE_START)" marker-end="url(#ZERO_OR_ONE_END)" fill="none" stroke="gray" d="M212.85714285714286,95L222.38095238095238,103.33333333333333C231.90476190476193,111.66666666666667,250.95238095238096,128.33333333333334,260.4761904761905,145C270,161.66666666666666,270,178.33333333333334,270,186.66666666666666L270,195" class="er relationshipLine"></path><path marker-start="url(#ONLY_ONE_START)" marker-end="url(#ONE_OR_MORE_END)" fill="none" stroke="gray" d="M270,270L270,278.3333333333333C270,286.6666666666667,270,303.3333333333333,270,323.0833333333333C270,342.8333333333333,270,365.6666666666667,270,377.0833333333333L270,388.5" class="er relationshipLine"></path><path marker-start="url(#ZERO_OR_MORE_START)" marker-end="url(#ONLY_ONE_END)" stroke-dasharray="8,8" fill="none" stroke="gray" d="M220,260.8069018262799L202.5740089416504,270.6724181885666C185.14801788330078,280.53793455085327,150.29603576660156,300.26896727542663,132.87004470825195,327.80115030438C115.44405364990234,355.3333333333333,115.44405364990234,390.6666666666667,115.44405364990234,426C115.44405364990234,461.3333333333333,115.44405364990234,496.6666666666667,115.44405364990234,530.1666666666666C115.44405364990234,563.6666666666666,115.44405364990234,595.3333333333334,115.44405364990234,627C115.44405364990234,658.6666666666666,115.44405364990234,690.3333333333334,115.44405364990234,720.75C115.44405364990234,751.1666666666666,115.44405364990234,780.3333333333334,115.44405364990234,809.5C115.44405364990234,838.6666666666666,115.44405364990234,867.8333333333334,115.44405364990234,890.75C115.44405364990234,913.6666666666666,115.44405364990234,930.3333333333334,115.44405364990234,938.6666666666666L115.44405364990234,947" class="er relationshipLine"></path><path marker-start="url(#ONLY_ONE_START)" marker-end="url(#ONLY_ONE_END)" stroke-dasharray="8,8" fill="none" stroke="gray" d="M115.44405364990234,1015L115.44405364990234,1023.3333333333334C115.44405364990234,1031.6666666666667,115.44405364990234,1048.3333333333333,156.5501391092936,1068.7918849827647C197.6562245686849,1089.2504366321962,279.86839548746747,1113.5008732643926,320.9744809468587,1125.6260915804905L362.08056640625,1137.7513098965887" class="er relationshipLine"></path><path marker-start="url(#ZERO_OR_MORE_START)" marker-end="url(#ONLY_ONE_END)" stroke-dasharray="8,8" fill="none" stroke="gray" d="M596.4042215887106,482L604.7821155044268,490.3333333333333C613.160009420143,498.6666666666667,629.9157972515754,515.3333333333334,650.2350695766941,532C670.5543419018127,548.6666666666666,694.4370987206175,565.3333333333334,706.3784771300199,573.6666666666666L718.3198555394223,582" class="er relationshipLine"></path><path marker-start="url(#ZERO_OR_MORE_START)" marker-end="url(#ONLY_ONE_END)" stroke-dasharray="8,8" fill="none" stroke="gray" d="M526.248607275621,482L524.1866776328417,490.3333333333333C522.1247479900625,498.6666666666667,518.0008887045038,515.3333333333334,515.9389590617246,539.5C513.8770294189453,563.6666666666666,513.8770294189453,595.3333333333334,513.8770294189453,627C513.8770294189453,658.6666666666666,513.8770294189453,690.3333333333334,513.8770294189453,720.75C513.8770294189453,751.1666666666666,513.8770294189453,780.3333333333334,513.8770294189453,809.5C513.8770294189453,838.6666666666666,513.8770294189453,867.8333333333334,531.3112271626791,891.8890048461479C548.7454249064127,915.9446763589625,583.6138203938802,934.8893527179249,601.0480181376139,944.3616908974062L618.4822158813477,953.8340290768875" class="er relationshipLine"></path><path marker-start="url(#ONLY_ONE_START)" marker-end="url(#ZERO_OR_MORE_END)" fill="none" stroke="gray" d="M320,248.69741823706028L356.6841290791829,260.5811818642169C393.3682581583659,272.4649454913735,466.73651631673175,296.2324727456867,503.42064539591473,316.4495697061767C540.1047744750977,336.6666666666667,540.1047744750977,353.3333333333333,540.1047744750977,361.6666666666667L540.1047744750977,370" class="er relationshipLine"></path><path marker-start="url(#ONLY_ONE_START)" marker-end="url(#ZERO_OR_MORE_END)" fill="none" stroke="gray" d="M270,463.5L270,474.9166666666667C270,486.3333333333333,270,509.1666666666667,276.85515413786237,530.75C283.7103082757247,552.3333333333334,297.4206165514494,572.6666666666666,304.27577068931174,582.8333333333334L311.1309248271741,593" class="er relationshipLine"></path><path marker-start="url(#ONLY_ONE_START)" marker-end="url(#ZERO_OR_MORE_END)" fill="none" stroke="gray" d="M461.46260833740234,480.04190638571987L448.86097717285156,488.70158865476657C436.2593460083008,497.3612709238132,411.0560836791992,514.6806354619066,392.9113222624126,533.5069843976199C374.7665608456261,552.3333333333334,363.6803003411544,572.6666666666666,358.1371700889186,582.8333333333334L352.5940398366828,593" class="er relationshipLine"></path><path marker-start="url(#ONLY_ONE_START)" marker-end="url(#ONE_OR_MORE_END)" fill="none" stroke="gray" d="M782.8032989501953,471L782.8032989501953,481.1666666666667C782.8032989501953,491.3333333333333,782.8032989501953,511.6666666666667,782.8032989501953,530.1666666666666C782.8032989501953,548.6666666666666,782.8032989501953,565.3333333333334,782.8032989501953,573.6666666666666L782.8032989501953,582" class="er relationshipLine"></path><path marker-start="url(#ONLY_ONE_START)" marker-end="url(#ONE_OR_MORE_END)" stroke-dasharray="8,8" fill="none" stroke="gray" d="M792.5721684506065,672L794.38121835809,680.3333333333334C796.1902682655736,688.6666666666666,799.8083680805407,705.3333333333334,801.6174179880242,722C803.4264678955078,738.6666666666666,803.4264678955078,755.3333333333334,803.4264678955078,763.6666666666666L803.4264678955078,772" class="er relationshipLine"></path><path marker-start="url(#ONLY_ONE_START)" marker-end="url(#ONE_OR_MORE_END)" stroke-dasharray="8,8" fill="none" stroke="gray" d="M718.3198555394223,672L706.3784771300199,680.3333333333334C694.4370987206175,688.6666666666666,670.5543419018127,705.3333333333334,658.6129634924102,728.25C646.6715850830078,751.1666666666666,646.6715850830078,780.3333333333334,646.6715850830078,809.5C646.6715850830078,838.6666666666666,646.6715850830078,867.8333333333334,648.8353381383987,890.75C650.9990911937895,913.6666666666666,655.3265973045712,930.3333333333334,657.4903503599621,938.6666666666666L659.654103415353,947" class="er relationshipLine"></path><path marker-start="url(#ONLY_ONE_START)" marker-end="url(#ONE_OR_MORE_END)" fill="none" stroke="gray" d="M803.4264678955078,847L803.4264678955078,855.3333333333334C803.4264678955078,863.6666666666666,803.4264678955078,880.3333333333334,789.2690925598145,897.4793393848307C775.1117172241211,914.6253454363281,746.7969665527344,932.250690872656,732.639591217041,941.0633635908201L718.4822158813477,949.8760363089842" class="er relationshipLine"></path><path marker-start="url(#ONLY_ONE_START)" marker-end="url(#ONLY_ONE_END)" stroke-dasharray="8,8" fill="none" stroke="gray" d="M668.4822158813477,1015L668.4822158813477,1023.3333333333334C668.4822158813477,1031.6666666666667,668.4822158813477,1048.3333333333333,634.0819409688314,1068.4061545405054C599.6816660563151,1088.4789757476776,530.8811162312826,1111.9579514953552,496.4808413187663,1123.6974393691942L462.08056640625,1135.4369272430329" class="er relationshipLine"></path><g transform="translate(120,20 )" id="Account"><rect height="75" width="100" y="0" x="0" stroke="gray" fill-opacity="100%" fill="honeydew" class="er entityBox"></rect><text transform="translate(50,37.5)" style="font-family: &quot;trebuchet ms&quot;, verdana, arial, sans-serif;; font-size: 12px" text-anchor="middle" dominant-baseline="middle" y="0" x="0" id="entity-Account" class="er entityLabel">Account</text></g><g transform="translate(20,195 )" id="Role"><rect height="75" width="100" y="0" x="0" stroke="gray" fill-opacity="100%" fill="honeydew" class="er entityBox"></rect><text transform="translate(50,37.5)" style="font-family: &quot;trebuchet ms&quot;, verdana, arial, sans-serif;; font-size: 12px" text-anchor="middle" dominant-baseline="middle" y="0" x="0" id="entity-Role" class="er entityLabel">Role</text></g><g transform="translate(220,195 )" id="Client"><rect height="75" width="100" y="0" x="0" stroke="gray" fill-opacity="100%" fill="honeydew" class="er entityBox"></rect><text transform="translate(50,37.5)" style="font-family: &quot;trebuchet ms&quot;, verdana, arial, sans-serif;; font-size: 12px" text-anchor="middle" dominant-baseline="middle" y="0" x="0" id="entity-Client" class="er entityLabel">Client</text></g><g transform="translate(216.9365234375,388.5 )" id="BillingSettings"><rect height="75" width="106.126953125" y="0" x="0" stroke="gray" fill-opacity="100%" fill="honeydew" class="er entityBox"></rect><text transform="translate(53.0634765625,37.5)" style="font-family: &quot;trebuchet ms&quot;, verdana, arial, sans-serif;; font-size: 12px" text-anchor="middle" dominant-baseline="middle" y="0" x="0" id="entity-BillingSettings" class="er entityLabel">BillingSettings</text></g><g transform="translate(65.02999114990234,947 )" id="Vehicle"><rect height="68" width="100.828125" y="0" x="0" stroke="gray" fill-opacity="100%" fill="honeydew" class="er entityBox"></rect><text transform="translate(50.4140625,12)" style="font-family: &quot;trebuchet ms&quot;, verdana, arial, sans-serif;; font-size: 12px" text-anchor="middle" dominant-baseline="middle" y="0" x="0" id="entity-Vehicle" class="er entityLabel">Vehicle</text><rect height="22" width="62.65625" y="24" x="0" stroke="gray" fill-opacity="100%" fill="honeydew" class="er attributeBoxOdd"></rect><text transform="translate(5,35)" style="font-family: &quot;trebuchet ms&quot;, verdana, arial, sans-serif;; font-size: 10.2px" text-anchor="left" dominant-baseline="middle" y="0" x="0" id="entity-Vehicle-attr-1-type" class="er entityLabel">string</text><rect height="22" width="38.171875" y="24" x="62.65625" stroke="gray" fill-opacity="100%" fill="honeydew" class="er attributeBoxOdd"></rect><text transform="translate(67.65625,35)" style="font-family: &quot;trebuchet ms&quot;, verdana, arial, sans-serif;; font-size: 10.2px" text-anchor="left" dominant-baseline="middle" y="0" x="0" id="entity-Vehicle-attr-1-name" class="er entityLabel">model</text><rect height="22" width="62.65625" y="46" x="0" stroke="gray" fill-opacity="100%" fill="honeydew" class="er attributeBoxEven"></rect><text transform="translate(5,57)" style="font-family: &quot;trebuchet ms&quot;, verdana, arial, sans-serif;; font-size: 10.2px" text-anchor="left" dominant-baseline="middle" y="0" x="0" id="entity-Vehicle-attr-2-type" class="er entityLabel">VehicleKind</text><rect height="22" width="38.171875" y="46" x="62.65625" stroke="gray" fill-opacity="100%" fill="honeydew" class="er attributeBoxEven"></rect><text transform="translate(67.65625,57)" style="font-family: &quot;trebuchet ms&quot;, verdana, arial, sans-serif;; font-size: 10.2px" text-anchor="left" dominant-baseline="middle" y="0" x="0" id="entity-Vehicle-attr-2-name" class="er entityLabel">kind</text></g><g transform="translate(362.08056640625,1115 )" id="PortType"><rect height="75" width="100" y="0" x="0" stroke="gray" fill-opacity="100%" fill="honeydew" class="er entityBox"></rect><text transform="translate(50,37.5)" style="font-family: &quot;trebuchet ms&quot;, verdana, arial, sans-serif;; font-size: 12px" text-anchor="middle" dominant-baseline="middle" y="0" x="0" id="entity-PortType" class="er entityLabel">PortType</text></g><g transform="translate(461.46260833740234,370 )" id="Rent"><rect height="112" width="157.28433227539062" y="0" x="0" stroke="gray" fill-opacity="100%" fill="honeydew" class="er entityBox"></rect><text transform="translate(78.64216613769531,12)" style="font-family: &quot;trebuchet ms&quot;, verdana, arial, sans-serif;; font-size: 12px" text-anchor="middle" dominant-baseline="middle" y="0" x="0" id="entity-Rent" class="er entityLabel">Rent</text><rect height="22" width="67.64370727539062" y="24" x="0" stroke="gray" fill-opacity="100%" fill="honeydew" class="er attributeBoxOdd"></rect><text transform="translate(5,35)" style="font-family: &quot;trebuchet ms&quot;, verdana, arial, sans-serif;; font-size: 10.2px" text-anchor="left" dominant-baseline="middle" y="0" x="0" id="entity-Rent-attr-1-type" class="er entityLabel">timestamptz</text><rect height="22" width="89.640625" y="24" x="67.64370727539062" stroke="gray" fill-opacity="100%" fill="honeydew" class="er attributeBoxOdd"></rect><text transform="translate(72.64370727539062,35)" style="font-family: &quot;trebuchet ms&quot;, verdana, arial, sans-serif;; font-size: 10.2px" text-anchor="left" dominant-baseline="middle" y="0" x="0" id="entity-Rent-attr-1-name" class="er entityLabel">started</text><rect height="22" width="67.64370727539062" y="46" x="0" stroke="gray" fill-opacity="100%" fill="honeydew" class="er attributeBoxEven"></rect><text transform="translate(5,57)" style="font-family: &quot;trebuchet ms&quot;, verdana, arial, sans-serif;; font-size: 10.2px" text-anchor="left" dominant-baseline="middle" y="0" x="0" id="entity-Rent-attr-2-type" class="er entityLabel">json</text><rect height="22" width="89.640625" y="46" x="67.64370727539062" stroke="gray" fill-opacity="100%" fill="honeydew" class="er attributeBoxEven"></rect><text transform="translate(72.64370727539062,57)" style="font-family: &quot;trebuchet ms&quot;, verdana, arial, sans-serif;; font-size: 10.2px" text-anchor="left" dominant-baseline="middle" y="0" x="0" id="entity-Rent-attr-2-name" class="er entityLabel">freezedCostRates</text><rect height="22" width="67.64370727539062" y="68" x="0" stroke="gray" fill-opacity="100%" fill="honeydew" class="er attributeBoxOdd"></rect><text transform="translate(5,79)" style="font-family: &quot;trebuchet ms&quot;, verdana, arial, sans-serif;; font-size: 10.2px" text-anchor="left" dominant-baseline="middle" y="0" x="0" id="entity-Rent-attr-3-type" class="er entityLabel">timestamptz</text><rect height="22" width="89.640625" y="68" x="67.64370727539062" stroke="gray" fill-opacity="100%" fill="honeydew" class="er attributeBoxOdd"></rect><text transform="translate(72.64370727539062,79)" style="font-family: &quot;trebuchet ms&quot;, verdana, arial, sans-serif;; font-size: 10.2px" text-anchor="left" dominant-baseline="middle" y="0" x="0" id="entity-Rent-attr-3-name" class="er entityLabel">finished</text><rect height="22" width="67.64370727539062" y="90" x="0" stroke="gray" fill-opacity="100%" fill="honeydew" class="er attributeBoxEven"></rect><text transform="translate(5,101)" style="font-family: &quot;trebuchet ms&quot;, verdana, arial, sans-serif;; font-size: 10.2px" text-anchor="left" dominant-baseline="middle" y="0" x="0" id="entity-Rent-attr-4-type" class="er entityLabel">number</text><rect height="22" width="89.640625" y="90" x="67.64370727539062" stroke="gray" fill-opacity="100%" fill="honeydew" class="er attributeBoxEven"></rect><text transform="translate(72.64370727539062,101)" style="font-family: &quot;trebuchet ms&quot;, verdana, arial, sans-serif;; font-size: 10.2px" text-anchor="left" dominant-baseline="middle" y="0" x="0" id="entity-Rent-attr-4-name" class="er entityLabel">totalPrice</text></g><g transform="translate(717.2141876220703,582 )" id="Spot"><rect height="90" width="131.17822265625" y="0" x="0" stroke="gray" fill-opacity="100%" fill="honeydew" class="er entityBox"></rect><text transform="translate(65.589111328125,12)" style="font-family: &quot;trebuchet ms&quot;, verdana, arial, sans-serif;; font-size: 12px" text-anchor="middle" dominant-baseline="middle" y="0" x="0" id="entity-Spot" class="er entityLabel">Spot</text><rect height="22" width="70.140625" y="24" x="0" stroke="gray" fill-opacity="100%" fill="honeydew" class="er attributeBoxOdd"></rect><text transform="translate(5,35)" style="font-family: &quot;trebuchet ms&quot;, verdana, arial, sans-serif;; font-size: 10.2px" text-anchor="left" dominant-baseline="middle" y="0" x="0" id="entity-Spot-attr-1-type" class="er entityLabel">bool</text><rect height="22" width="61.03759765625" y="24" x="70.140625" stroke="gray" fill-opacity="100%" fill="honeydew" class="er attributeBoxOdd"></rect><text transform="translate(75.140625,35)" style="font-family: &quot;trebuchet ms&quot;, verdana, arial, sans-serif;; font-size: 10.2px" text-anchor="left" dominant-baseline="middle" y="0" x="0" id="entity-Spot-attr-1-name" class="er entityLabel">available</text><rect height="22" width="70.140625" y="46" x="0" stroke="gray" fill-opacity="100%" fill="honeydew" class="er attributeBoxEven"></rect><text transform="translate(5,57)" style="font-family: &quot;trebuchet ms&quot;, verdana, arial, sans-serif;; font-size: 10.2px" text-anchor="left" dominant-baseline="middle" y="0" x="0" id="entity-Spot-attr-2-type" class="er entityLabel">VehicleKind[]</text><rect height="22" width="61.03759765625" y="46" x="70.140625" stroke="gray" fill-opacity="100%" fill="honeydew" class="er attributeBoxEven"></rect><text transform="translate(75.140625,57)" style="font-family: &quot;trebuchet ms&quot;, verdana, arial, sans-serif;; font-size: 10.2px" text-anchor="left" dominant-baseline="middle" y="0" x="0" id="entity-Spot-attr-2-name" class="er entityLabel">suitableFor</text><rect height="22" width="70.140625" y="68" x="0" stroke="gray" fill-opacity="100%" fill="honeydew" class="er attributeBoxOdd"></rect><text transform="translate(5,79)" style="font-family: &quot;trebuchet ms&quot;, verdana, arial, sans-serif;; font-size: 10.2px" text-anchor="left" dominant-baseline="middle" y="0" x="0" id="entity-Spot-attr-3-type" class="er entityLabel">number</text><rect height="22" width="61.03759765625" y="68" x="70.140625" stroke="gray" fill-opacity="100%" fill="honeydew" class="er attributeBoxOdd"></rect><text transform="translate(75.140625,79)" style="font-family: &quot;trebuchet ms&quot;, verdana, arial, sans-serif;; font-size: 10.2px" text-anchor="left" dominant-baseline="middle" y="0" x="0" id="entity-Spot-attr-3-name" class="er entityLabel">cost</text></g><g transform="translate(618.4822158813477,947 )" id="ChargingPort"><rect height="68" width="100" y="0" x="0" stroke="gray" fill-opacity="100%" fill="honeydew" class="er entityBox"></rect><text transform="translate(50,12)" style="font-family: &quot;trebuchet ms&quot;, verdana, arial, sans-serif;; font-size: 12px" text-anchor="middle" dominant-baseline="middle" y="0" x="0" id="entity-ChargingPort" class="er entityLabel">ChargingPort</text><rect height="22" width="46.5924072265625" y="24" x="0" stroke="gray" fill-opacity="100%" fill="honeydew" class="er attributeBoxOdd"></rect><text transform="translate(5,35)" style="font-family: &quot;trebuchet ms&quot;, verdana, arial, sans-serif;; font-size: 10.2px" text-anchor="left" dominant-baseline="middle" y="0" x="0" id="entity-ChargingPort-attr-1-type" class="er entityLabel">bool</text><rect height="22" width="53.4075927734375" y="24" x="46.5924072265625" stroke="gray" fill-opacity="100%" fill="honeydew" class="er attributeBoxOdd"></rect><text transform="translate(51.5924072265625,35)" style="font-family: &quot;trebuchet ms&quot;, verdana, arial, sans-serif;; font-size: 10.2px" text-anchor="left" dominant-baseline="middle" y="0" x="0" id="entity-ChargingPort-attr-1-name" class="er entityLabel">available</text><rect height="22" width="46.5924072265625" y="46" x="0" stroke="gray" fill-opacity="100%" fill="honeydew" class="er attributeBoxEven"></rect><text transform="translate(5,57)" style="font-family: &quot;trebuchet ms&quot;, verdana, arial, sans-serif;; font-size: 10.2px" text-anchor="left" dominant-baseline="middle" y="0" x="0" id="entity-ChargingPort-attr-2-type" class="er entityLabel">number</text><rect height="22" width="53.4075927734375" y="46" x="46.5924072265625" stroke="gray" fill-opacity="100%" fill="honeydew" class="er attributeBoxEven"></rect><text transform="translate(51.5924072265625,57)" style="font-family: &quot;trebuchet ms&quot;, verdana, arial, sans-serif;; font-size: 10.2px" text-anchor="left" dominant-baseline="middle" y="0" x="0" id="entity-ChargingPort-attr-2-name" class="er entityLabel">cost</text></g><g transform="translate(278.00794219970703,593 )" id="Payment"><rect height="68" width="112.09683227539062" y="0" x="0" stroke="gray" fill-opacity="100%" fill="honeydew" class="er entityBox"></rect><text transform="translate(56.04841613769531,12)" style="font-family: &quot;trebuchet ms&quot;, verdana, arial, sans-serif;; font-size: 12px" text-anchor="middle" dominant-baseline="middle" y="0" x="0" id="entity-Payment" class="er entityLabel">Payment</text><rect height="22" width="67.64370727539062" y="24" x="0" stroke="gray" fill-opacity="100%" fill="honeydew" class="er attributeBoxOdd"></rect><text transform="translate(5,35)" style="font-family: &quot;trebuchet ms&quot;, verdana, arial, sans-serif;; font-size: 10.2px" text-anchor="left" dominant-baseline="middle" y="0" x="0" id="entity-Payment-attr-1-type" class="er entityLabel">number</text><rect height="22" width="44.453125" y="24" x="67.64370727539062" stroke="gray" fill-opacity="100%" fill="honeydew" class="er attributeBoxOdd"></rect><text transform="translate(72.64370727539062,35)" style="font-family: &quot;trebuchet ms&quot;, verdana, arial, sans-serif;; font-size: 10.2px" text-anchor="left" dominant-baseline="middle" y="0" x="0" id="entity-Payment-attr-1-name" class="er entityLabel">amount</text><rect height="22" width="67.64370727539062" y="46" x="0" stroke="gray" fill-opacity="100%" fill="honeydew" class="er attributeBoxEven"></rect><text transform="translate(5,57)" style="font-family: &quot;trebuchet ms&quot;, verdana, arial, sans-serif;; font-size: 10.2px" text-anchor="left" dominant-baseline="middle" y="0" x="0" id="entity-Payment-attr-2-type" class="er entityLabel">timestamptz</text><rect height="22" width="44.453125" y="46" x="67.64370727539062" stroke="gray" fill-opacity="100%" fill="honeydew" class="er attributeBoxEven"></rect><text transform="translate(72.64370727539062,57)" style="font-family: &quot;trebuchet ms&quot;, verdana, arial, sans-serif;; font-size: 10.2px" text-anchor="left" dominant-baseline="middle" y="0" x="0" id="entity-Payment-attr-2-name" class="er entityLabel">when</text></g><g transform="translate(732.8032989501953,381 )" id="Parking"><rect height="90" width="100" y="0" x="0" stroke="gray" fill-opacity="100%" fill="honeydew" class="er entityBox"></rect><text transform="translate(50,12)" style="font-family: &quot;trebuchet ms&quot;, verdana, arial, sans-serif;; font-size: 12px" text-anchor="middle" dominant-baseline="middle" y="0" x="0" id="entity-Parking" class="er entityLabel">Parking</text><rect height="22" width="44.4296875" y="24" x="0" stroke="gray" fill-opacity="100%" fill="honeydew" class="er attributeBoxOdd"></rect><text transform="translate(5,35)" style="font-family: &quot;trebuchet ms&quot;, verdana, arial, sans-serif;; font-size: 10.2px" text-anchor="left" dominant-baseline="middle" y="0" x="0" id="entity-Parking-attr-1-type" class="er entityLabel">string</text><rect height="22" width="55.5703125" y="24" x="44.4296875" stroke="gray" fill-opacity="100%" fill="honeydew" class="er attributeBoxOdd"></rect><text transform="translate(49.4296875,35)" style="font-family: &quot;trebuchet ms&quot;, verdana, arial, sans-serif;; font-size: 10.2px" text-anchor="left" dominant-baseline="middle" y="0" x="0" id="entity-Parking-attr-1-name" class="er entityLabel">name</text><rect height="22" width="44.4296875" y="46" x="0" stroke="gray" fill-opacity="100%" fill="honeydew" class="er attributeBoxEven"></rect><text transform="translate(5,57)" style="font-family: &quot;trebuchet ms&quot;, verdana, arial, sans-serif;; font-size: 10.2px" text-anchor="left" dominant-baseline="middle" y="0" x="0" id="entity-Parking-attr-2-type" class="er entityLabel">json</text><rect height="22" width="55.5703125" y="46" x="44.4296875" stroke="gray" fill-opacity="100%" fill="honeydew" class="er attributeBoxEven"></rect><text transform="translate(49.4296875,57)" style="font-family: &quot;trebuchet ms&quot;, verdana, arial, sans-serif;; font-size: 10.2px" text-anchor="left" dominant-baseline="middle" y="0" x="0" id="entity-Parking-attr-2-name" class="er entityLabel">address</text><rect height="22" width="44.4296875" y="68" x="0" stroke="gray" fill-opacity="100%" fill="honeydew" class="er attributeBoxOdd"></rect><text transform="translate(5,79)" style="font-family: &quot;trebuchet ms&quot;, verdana, arial, sans-serif;; font-size: 10.2px" text-anchor="left" dominant-baseline="middle" y="0" x="0" id="entity-Parking-attr-3-type" class="er entityLabel">json</text><rect height="22" width="55.5703125" y="68" x="44.4296875" stroke="gray" fill-opacity="100%" fill="honeydew" class="er attributeBoxOdd"></rect><text transform="translate(49.4296875,79)" style="font-family: &quot;trebuchet ms&quot;, verdana, arial, sans-serif;; font-size: 10.2px" text-anchor="left" dominant-baseline="middle" y="0" x="0" id="entity-Parking-attr-3-name" class="er entityLabel">location</text></g><g transform="translate(746.6715850830078,772 )" id="ElectricCharger"><rect height="75" width="113.509765625" y="0" x="0" stroke="gray" fill-opacity="100%" fill="honeydew" class="er entityBox"></rect><text transform="translate(56.7548828125,37.5)" style="font-family: &quot;trebuchet ms&quot;, verdana, arial, sans-serif;; font-size: 12px" text-anchor="middle" dominant-baseline="middle" y="0" x="0" id="entity-ElectricCharger" class="er entityLabel">ElectricCharger</text></g><rect fill-opacity="85%" fill="white" height="14" width="66.59375" y="130.56451416015625" x="51.06489562988281" class="er relationshipLabelBox"></rect><text style="font-family: &quot;trebuchet ms&quot;, verdana, arial, sans-serif;; font-size: 12px" dominant-baseline="middle" text-anchor="middle" y="137.56451416015625" x="84.36177062988281" id="rel1" class="er relationshipLabel">has assigned</text><rect fill-opacity="85%" fill="white" height="14" width="69.49609375" y="130.56455993652344" x="220.89015197753906" class="er relationshipLabelBox"></rect><text style="font-family: &quot;trebuchet ms&quot;, verdana, arial, sans-serif;; font-size: 12px" dominant-baseline="middle" text-anchor="middle" y="137.56455993652344" x="255.63819885253906" id="rel2" class="er relationshipLabel">might be the</text><rect fill-opacity="85%" fill="white" height="14" width="17.861328125" y="322.25" x="261.0693359375" class="er relationshipLabelBox"></rect><text style="font-family: &quot;trebuchet ms&quot;, verdana, arial, sans-serif;; font-size: 12px" dominant-baseline="middle" text-anchor="middle" y="329.25" x="270" id="rel3" class="er relationshipLabel">has</text><rect fill-opacity="85%" fill="white" height="14" width="88.54296875" y="573.4151611328125" x="71.17256927490234" class="er relationshipLabelBox"></rect><text style="font-family: &quot;trebuchet ms&quot;, verdana, arial, sans-serif;; font-size: 12px" dominant-baseline="middle" text-anchor="middle" y="580.4151611328125" x="115.44405364990234" id="rel4" class="er relationshipLabel">owns a model of</text><rect fill-opacity="85%" fill="white" height="14" width="23.671875" y="1088.1871337890625" x="211.55775451660156" class="er relationshipLabelBox"></rect><text style="font-family: &quot;trebuchet ms&quot;, verdana, arial, sans-serif;; font-size: 12px" dominant-baseline="middle" text-anchor="middle" y="1095.1871337890625" x="223.39369201660156" id="rel5" class="er relationshipLabel">with</text><rect fill-opacity="85%" fill="white" height="14" width="70.451171875" y="528.4609375" x="619.2789306640625" class="er relationshipLabelBox"></rect><text style="font-family: &quot;trebuchet ms&quot;, verdana, arial, sans-serif;; font-size: 12px" dominant-baseline="middle" text-anchor="middle" y="535.4609375" x="654.5045166015625" id="rel6" class="er relationshipLabel">the available</text><rect fill-opacity="85%" fill="white" height="14" width="70.451171875" y="735.0047607421875" x="478.65142822265625" class="er relationshipLabelBox"></rect><text style="font-family: &quot;trebuchet ms&quot;, verdana, arial, sans-serif;; font-size: 12px" dominant-baseline="middle" text-anchor="middle" y="742.0047607421875" x="513.8770141601562" id="rel7" class="er relationshipLabel">the available</text><rect fill-opacity="85%" fill="white" height="14" width="18.8125" y="284.1993408203125" x="436.3579406738281" class="er relationshipLabelBox"></rect><text style="font-family: &quot;trebuchet ms&quot;, verdana, arial, sans-serif;; font-size: 12px" dominant-baseline="middle" text-anchor="middle" y="291.1993408203125" x="445.7641906738281" id="rel8" class="er relationshipLabel">can</text><rect fill-opacity="85%" fill="white" height="14" width="84.025390625" y="525.3783569335938" x="235.37353515625" class="er relationshipLabelBox"></rect><text style="font-family: &quot;trebuchet ms&quot;, verdana, arial, sans-serif;; font-size: 12px" dominant-baseline="middle" text-anchor="middle" y="532.3783569335938" x="277.38623046875" id="rel9" class="er relationshipLabel">will be used for</text><rect fill-opacity="85%" fill="white" height="14" width="116.359375" y="521.2295532226562" x="340.03424072265625" class="er relationshipLabelBox"></rect><text style="font-family: &quot;trebuchet ms&quot;, verdana, arial, sans-serif;; font-size: 12px" dominant-baseline="middle" text-anchor="middle" y="528.2295532226562" x="398.21392822265625" id="rel10" class="er relationshipLabel">must be finished with</text><rect fill-opacity="85%" fill="white" height="14" width="17.861328125" y="519.5" x="773.8726196289062" class="er relationshipLabelBox"></rect><text style="font-family: &quot;trebuchet ms&quot;, verdana, arial, sans-serif;; font-size: 12px" dominant-baseline="middle" text-anchor="middle" y="526.5" x="782.8032836914062" id="rel11" class="er relationshipLabel">has</text><rect fill-opacity="85%" fill="white" height="14" width="74.875" y="714.6134643554688" x="764.1373291015625" class="er relationshipLabelBox"></rect><text style="font-family: &quot;trebuchet ms&quot;, verdana, arial, sans-serif;; font-size: 12px" dominant-baseline="middle" text-anchor="middle" y="721.6134643554688" x="801.5748291015625" id="rel12" class="er relationshipLabel">has reachable</text><rect fill-opacity="85%" fill="white" height="14" width="74.875" y="788.9252319335938" x="609.279052734375" class="er relationshipLabelBox"></rect><text style="font-family: &quot;trebuchet ms&quot;, verdana, arial, sans-serif;; font-size: 12px" dominant-baseline="middle" text-anchor="middle" y="795.9252319335938" x="646.716552734375" id="rel13" class="er relationshipLabel">has reachable</text><rect fill-opacity="85%" fill="white" height="14" width="23.671875" y="902.7237548828125" x="765.2466430664062" class="er relationshipLabelBox"></rect><text style="font-family: &quot;trebuchet ms&quot;, verdana, arial, sans-serif;; font-size: 12px" dominant-baseline="middle" text-anchor="middle" y="909.7237548828125" x="777.0825805664062" id="rel14" class="er relationshipLabel">with</text><rect fill-opacity="85%" fill="white" height="14" width="23.333984375" y="1085.968505859375" x="569.499267578125" class="er relationshipLabelBox"></rect><text style="font-family: &quot;trebuchet ms&quot;, verdana, arial, sans-serif;; font-size: 12px" dominant-baseline="middle" text-anchor="middle" y="1092.968505859375" x="581.166259765625" id="rel15" class="er relationshipLabel">is of</text><style>@import url("https://cdnjs.cloudflare.com/ajax/libs/font-awesome/5.15.2/css/all.min.css");</style></svg>